<svg width="18" height="18" viewBox="0 0 18 18" fill="none" xmlns="http://www.w3.org/2000/svg">
<path d="M3.63937 8.17313C3.56485 8.09315 3.52429 7.98738 3.52621 7.87808C3.52814 7.76879 3.57242 7.66451 3.64971 7.58721C3.72701 7.50992 3.83129 7.46564 3.94058 7.46371C4.04988 7.46179 4.15565 7.50236 4.23563 7.57687L8.57812 11.9187V2.25C8.57812 2.13811 8.62257 2.03081 8.70169 1.95169C8.78081 1.87257 8.88811 1.82813 9 1.82812C9.11189 1.82812 9.21919 1.87257 9.29831 1.95169C9.37743 2.03081 9.42188 2.13811 9.42188 2.25V11.9187L13.7644 7.57687C13.8443 7.50236 13.9501 7.46179 14.0594 7.46371C14.1687 7.46564 14.273 7.50992 14.3503 7.58721C14.4276 7.66451 14.4719 7.76879 14.4738 7.87808C14.4757 7.98738 14.4351 8.09315 14.3606 8.17313L9.29813 13.2356C9.21902 13.3146 9.1118 13.359 9 13.359C8.8882 13.359 8.78098 13.3146 8.70187 13.2356L3.63937 8.17313ZM15.1875 14.7656H2.8125C2.70061 14.7656 2.59331 14.8101 2.51419 14.8892C2.43507 14.9683 2.39063 15.0756 2.39062 15.1875C2.39063 15.2994 2.43507 15.4067 2.51419 15.4858C2.59331 15.5649 2.70061 15.6094 2.8125 15.6094H15.1875C15.2994 15.6094 15.4067 15.5649 15.4858 15.4858C15.5649 15.4067 15.6094 15.2994 15.6094 15.1875C15.6094 15.0756 15.5649 14.9683 15.4858 14.8892C15.4067 14.8101 15.2994 14.7656 15.1875 14.7656Z" fill="#1E429F"/>
</svg>
