<svg width="20" height="21" viewBox="0 0 20 21" fill="none" xmlns="http://www.w3.org/2000/svg">
<path d="M12.8312 16.5423C12.8773 16.5852 12.9142 16.637 12.9398 16.6945C12.9654 16.752 12.9792 16.814 12.9803 16.877C12.9814 16.9399 12.9699 17.0024 12.9463 17.0608C12.9227 17.1192 12.8876 17.1722 12.8431 17.2167C12.7986 17.2612 12.7456 17.2963 12.6872 17.3199C12.6288 17.3435 12.5663 17.355 12.5034 17.3539C12.4404 17.3528 12.3784 17.339 12.3209 17.3134C12.2634 17.2878 12.2116 17.2509 12.1687 17.2048L5.9187 10.9548C5.83092 10.8669 5.78162 10.7478 5.78162 10.6236C5.78162 10.4993 5.83092 10.3802 5.9187 10.2923L12.1687 4.04231C12.2576 3.95951 12.3751 3.91443 12.4965 3.91658C12.618 3.91872 12.7338 3.96791 12.8197 4.0538C12.9056 4.13968 12.9548 4.25555 12.9569 4.37698C12.9591 4.49842 12.914 4.61595 12.8312 4.70481L6.91323 10.6236L12.8312 16.5423Z" fill="#39393A"/>
</svg>
