<svg width="20" height="20" viewBox="0 0 20 20" fill="none" xmlns="http://www.w3.org/2000/svg">
<path d="M16.5813 7.83128L10.3313 14.0813C10.2434 14.1691 10.1242 14.2184 10 14.2184C9.87581 14.2184 9.75667 14.1691 9.66878 14.0813L3.41878 7.83128C3.33598 7.74242 3.2909 7.62489 3.29304 7.50345C3.29518 7.38201 3.34438 7.26615 3.43026 7.18026C3.51615 7.09438 3.63201 7.04518 3.75345 7.04304C3.87489 7.0409 3.99242 7.08598 4.08128 7.16878L10 13.0867L15.9188 7.16878C16.0076 7.08598 16.1252 7.0409 16.2466 7.04304C16.368 7.04518 16.4839 7.09438 16.5698 7.18026C16.6557 7.26615 16.7049 7.38201 16.707 7.50345C16.7092 7.62489 16.6641 7.74242 16.5813 7.83128Z" fill="#39393A"/>
</svg>
