<svg width="20" height="21" viewBox="0 0 20 21" fill="none" xmlns="http://www.w3.org/2000/svg">
<path d="M14.0813 11.0715L7.83128 17.3215C7.74242 17.4043 7.62489 17.4494 7.50345 17.4472C7.38201 17.4451 7.26615 17.3959 7.18026 17.31C7.09438 17.2241 7.04518 17.1082 7.04304 16.9868C7.0409 16.8654 7.08598 16.7478 7.16878 16.659L13.0867 10.7402L7.16878 4.82148C7.08598 4.73262 7.0409 4.61509 7.04304 4.49365C7.04518 4.37222 7.09438 4.25635 7.18026 4.17047C7.26615 4.08458 7.38201 4.03539 7.50345 4.03325C7.62489 4.0311 7.74242 4.07618 7.83128 4.15898L14.0813 10.409C14.1691 10.4969 14.2184 10.616 14.2184 10.7402C14.2184 10.8644 14.1691 10.9836 14.0813 11.0715Z" fill="#F8F8FA"/>
</svg>
