<svg width="24" height="24" viewBox="0 0 24 24" fill="none" xmlns="http://www.w3.org/2000/svg">
<path d="M9.33282 15.9193L5.41382 12.0003C5.22629 11.8128 4.97198 11.7075 4.70682 11.7075C4.44165 11.7075 4.18735 11.8128 3.99982 12.0003C3.81235 12.1878 3.70703 12.4421 3.70703 12.7073C3.70703 12.9725 3.81235 13.2268 3.99982 13.4143L7.91882 17.3333C8.10455 17.5191 8.32506 17.6665 8.56776 17.767C8.81047 17.8676 9.07061 17.9194 9.33332 17.9194C9.59603 17.9194 9.85617 17.8676 10.0989 17.767C10.3416 17.6665 10.5621 17.5191 10.7478 17.3333L19.9998 8.0813C20.1873 7.89377 20.2926 7.63946 20.2926 7.3743C20.2926 7.10913 20.1873 6.85482 19.9998 6.6673C19.8123 6.47983 19.558 6.37451 19.2928 6.37451C19.0277 6.37451 18.7733 6.47983 18.5858 6.6673L9.33282 15.9193Z" fill="#8AB32C"/>
</svg>
