<svg width="20" height="20" viewBox="0 0 20 20" fill="none" xmlns="http://www.w3.org/2000/svg">
<path d="M18.3334 10.0498C18.3332 8.45731 17.8766 6.89824 17.0178 5.55716C16.159 4.21608 14.934 3.14915 13.4877 2.48268C12.0414 1.81621 10.4344 1.5781 8.85692 1.79656C7.27949 2.01502 5.79768 2.68088 4.58692 3.71533C3.37617 4.74977 2.48716 6.10948 2.02515 7.63347C1.56315 9.15747 1.54749 10.7819 1.98003 12.3146C2.41257 13.8472 3.27519 15.2238 4.46579 16.2814C5.65638 17.339 7.12507 18.0333 8.698 18.2821V12.4587H6.58237V10.0498H8.698V8.21386C8.698 6.12532 9.94227 4.97167 11.8454 4.97167C12.4704 4.98034 13.0939 5.03465 13.711 5.13417V7.18522H12.66C12.4809 7.16143 12.2987 7.17825 12.127 7.23443C11.9553 7.29062 11.7984 7.38472 11.668 7.50978C11.5376 7.63483 11.437 7.78763 11.3737 7.95684C11.3103 8.12606 11.2859 8.30735 11.3022 8.4873V10.0498H13.6136L13.2438 12.4587H11.3022V18.2821C13.2625 17.972 15.0477 16.9724 16.3367 15.4633C17.6257 13.9541 18.3337 12.0345 18.3334 10.0498Z" fill="#39393A"/>
</svg>
