<svg width="32" height="32" viewBox="0 0 32 32" fill="none" xmlns="http://www.w3.org/2000/svg">
<rect width="32" height="32" fill="white"/>
<path d="M27.8743 6.83366L19.4078 15.2862C18.9696 15.7236 18.9693 16.4335 19.4071 16.8713L27.7989 25.2631C29.804 22.7126 31 19.496 31 16C31 12.5481 29.834 9.36852 27.8743 6.83366Z" fill="#8AB32C"/>
<path d="M26.3649 5.15706L16.2367 15.2869C15.7994 15.7242 15.7991 16.433 16.236 16.8706L26.2751 26.9281C25.848 27.3298 25.3975 27.7067 24.9256 28.0566L13.92 16.8614C13.4924 16.4264 13.4913 15.7293 13.9175 15.293L24.9713 3.97737C25.4597 4.3424 25.9251 4.73648 26.3649 5.15706Z" fill="#8AB32C"/>
<path d="M22.9194 29.3122L13.1503 19.5228V30.7296C14.0729 30.9071 15.0256 31 16 31C18.4957 31 20.8491 30.3905 22.9194 29.3122Z" fill="#8AB32C"/>
<path d="M10.9094 30.1141V1.88588C10.3097 2.1022 9.72779 2.35566 9.16637 2.64348V29.3565C9.72779 29.6443 10.3097 29.8978 10.9094 30.1141Z" fill="#8AB32C"/>
<path d="M6.92551 27.9448V4.05522C3.32457 6.79508 1 11.1261 1 16C1 20.8739 3.32457 25.2049 6.92551 27.9448Z" fill="#8AB32C"/>
<path d="M13.1503 1.27035V12.5309L22.9549 2.70636C20.8761 1.61651 18.51 1 16 1C15.0256 1 14.0729 1.09291 13.1503 1.27035Z" fill="#8AB32C"/>
</svg>
