<svg width="20" height="20" viewBox="0 0 20 20" fill="none" xmlns="http://www.w3.org/2000/svg">
<path d="M9.99827 3.16635C12.2203 3.16635 12.4869 3.17469 13.3652 3.21468C13.8937 3.22092 14.4172 3.31807 14.9128 3.50188C15.2746 3.63543 15.6018 3.84842 15.8705 4.12515C16.1472 4.39377 16.3602 4.72103 16.4937 5.08283C16.6775 5.57841 16.7747 6.10192 16.7809 6.63045C16.8209 7.51036 16.8309 7.777 16.8309 9.999C16.8309 12.221 16.8226 12.4876 16.7826 13.3659C16.7764 13.8944 16.6792 14.4179 16.4954 14.9135C16.3567 15.2727 16.1444 15.5989 15.8721 15.8712C15.5999 16.1435 15.2736 16.3558 14.9144 16.4945C14.4189 16.6783 13.8954 16.7754 13.3668 16.7817C12.4886 16.8217 12.2247 16.83 9.99994 16.83C7.77516 16.83 7.5113 16.8217 6.63305 16.7817C6.10452 16.7754 5.58101 16.6783 5.08543 16.4945C4.72363 16.3609 4.39637 16.1479 4.12775 15.8712C3.85102 15.6026 3.63804 15.2753 3.50448 14.9135C3.32067 14.4179 3.22352 13.8944 3.21728 13.3659C3.17562 12.4876 3.16562 12.2238 3.16562 9.999C3.16562 7.77423 3.17395 7.51036 3.21395 6.63212C3.22019 6.10359 3.31734 5.58007 3.50114 5.0845C3.63519 4.72254 3.84875 4.39527 4.12608 4.12681C4.39471 3.85008 4.72196 3.6371 5.08376 3.50354C5.57934 3.31974 6.10286 3.22259 6.63139 3.21635C7.50963 3.17635 7.77627 3.16635 9.99827 3.16635ZM9.99827 1.6665C7.73517 1.6665 7.4513 1.67595 6.56306 1.7165C5.87159 1.73115 5.18757 1.86262 4.53993 2.10535C3.9843 2.31446 3.48084 2.64201 3.06452 3.06525C2.64068 3.48141 2.31255 3.98488 2.10295 4.54066C1.86022 5.1883 1.72875 5.87232 1.7141 6.56379C1.67521 7.45204 1.66577 7.7359 1.66577 9.999C1.66577 12.2621 1.67522 12.546 1.71577 13.4342C1.73042 14.1257 1.86189 14.8097 2.10462 15.4573C2.31422 16.0131 2.64235 16.5166 3.06619 16.9328C3.48234 17.3566 3.98581 17.6847 4.5416 17.8943C5.18923 18.1371 5.87325 18.2685 6.56473 18.2832C7.45353 18.3237 7.73683 18.3332 9.99994 18.3332C12.263 18.3332 12.5469 18.3237 13.4352 18.2832C14.1266 18.2685 14.8106 18.1371 15.4583 17.8943C16.0116 17.6799 16.5141 17.3524 16.9337 16.9328C17.3533 16.5132 17.6808 16.0107 17.8953 15.4573C18.138 14.8097 18.2695 14.1257 18.2841 13.4342C18.3247 12.5454 18.3341 12.2621 18.3341 9.999C18.3341 7.7359 18.3247 7.45204 18.2841 6.56379C18.2695 5.87232 18.138 5.1883 17.8953 4.54066C17.6857 3.98488 17.3575 3.48141 16.9337 3.06525C16.5175 2.64141 16.0141 2.31329 15.4583 2.10368C14.8106 1.86095 14.1266 1.72948 13.4352 1.71483C12.5452 1.67595 12.2614 1.6665 9.99827 1.6665Z" fill="#39393A"/>
<path d="M9.99826 5.72165C9.15228 5.72165 8.3253 5.97252 7.62189 6.44252C6.91849 6.91252 6.37025 7.58055 6.04651 8.36213C5.72276 9.14372 5.63806 10.0037 5.8031 10.8335C5.96814 11.6632 6.37552 12.4254 6.97372 13.0235C7.57192 13.6217 8.33407 14.0291 9.16379 14.1942C9.99352 14.3592 10.8535 14.2745 11.6351 13.9508C12.4167 13.627 13.0847 13.0788 13.5547 12.3754C14.0247 11.672 14.2756 10.845 14.2756 9.999C14.2756 8.86458 13.825 7.77662 13.0228 6.97446C12.2206 6.1723 11.1327 5.72165 9.99826 5.72165ZM9.99826 12.7765C9.44892 12.7765 8.91192 12.6136 8.45517 12.3084C7.99841 12.0032 7.64241 11.5694 7.43219 11.0619C7.22196 10.5544 7.16696 9.99592 7.27413 9.45714C7.3813 8.91836 7.64583 8.42346 8.03427 8.03502C8.42271 7.64657 8.91762 7.38204 9.4564 7.27487C9.99518 7.1677 10.5536 7.22271 11.0612 7.43293C11.5687 7.64315 12.0025 7.99915 12.3077 8.45591C12.6129 8.91267 12.7758 9.44967 12.7758 9.999C12.7758 10.7356 12.4831 11.4421 11.9623 11.963C11.4414 12.4839 10.7349 12.7765 9.99826 12.7765Z" fill="#39393A"/>
<path d="M14.4462 6.55102C14.9984 6.55102 15.4461 6.10334 15.4461 5.55112C15.4461 4.99889 14.9984 4.55122 14.4462 4.55122C13.8939 4.55122 13.4463 4.99889 13.4463 5.55112C13.4463 6.10334 13.8939 6.55102 14.4462 6.55102Z" fill="#39393A"/>
</svg>
