<svg width="185" height="44" viewBox="0 0 185 44" fill="none" xmlns="http://www.w3.org/2000/svg">
<path d="M39.0739 8.67253L26.7639 20.9621C26.1268 21.5981 26.1264 22.6303 26.763 23.2668L38.9642 35.4681C41.8795 31.7598 43.6184 27.0829 43.6184 21.9999C43.6184 16.981 41.9231 12.3581 39.0739 8.67253Z" fill="#8AB32C"/>
<path d="M36.8792 6.23484L22.1533 20.9631C21.5176 21.5989 21.5172 22.6295 22.1523 23.2658L36.7486 37.8889C36.1277 38.4729 35.4726 39.021 34.7866 39.5297L18.785 23.2524C18.1633 22.6199 18.1617 21.6064 18.7814 20.972L34.853 4.51963C35.563 5.05036 36.2397 5.62333 36.8792 6.23484Z" fill="#8AB32C"/>
<path d="M31.8696 41.3553L17.6659 27.1219V43.4161C19.0073 43.6741 20.3925 43.8092 21.8092 43.8092C25.4379 43.8092 28.8595 42.923 31.8696 41.3553Z" fill="#8AB32C"/>
<path d="M14.4078 42.5212V1.4787C13.5358 1.79323 12.6897 2.16174 11.8735 2.58021L11.8735 41.4197C12.6897 41.8382 13.5358 42.2067 14.4078 42.5212Z" fill="#8AB32C"/>
<path d="M8.61537 39.3671V4.63281C3.3798 8.61644 0 14.9135 0 21.9999C0 29.0864 3.3798 35.3835 8.61537 39.3671Z" fill="#8AB32C"/>
<path d="M17.6659 0.583753V16.9561L31.9213 2.67164C28.8987 1.08705 25.4586 0.190674 21.8092 0.190674C20.3925 0.190674 19.0073 0.325759 17.6659 0.583753Z" fill="#8AB32C"/>
<path d="M61.6796 21.7597C59.5961 21.7597 58.0024 21.1294 56.8986 19.8689C55.7948 18.6083 55.2429 16.7926 55.2429 14.4217C55.2429 14.389 55.2429 14.3563 55.2429 14.3237C55.2429 12.8868 55.5139 11.6132 56.056 10.5028C56.5982 9.38595 57.3721 8.53034 58.378 7.93598C59.3838 7.33509 60.5366 7.03464 61.8363 7.03464C61.8821 7.03464 61.9245 7.03464 61.9637 7.03464C63.368 7.03464 64.7657 7.37101 66.1569 8.04375L65.1772 10.5126C63.8513 9.87907 62.7801 9.5623 61.9637 9.5623C60.8207 9.5623 59.9357 9.99337 59.3087 10.8555C58.6817 11.7111 58.3682 12.9064 58.3682 14.4413C58.3682 17.6351 59.5667 19.232 61.9637 19.232C62.963 19.232 64.1811 18.9806 65.618 18.4777V21.0249C64.4424 21.5148 63.1296 21.7597 61.6796 21.7597Z" fill="#39393A"/>
<path d="M69.8112 19.8493C68.6355 18.5756 68.0477 16.7468 68.0477 14.3629C68.0477 11.9789 68.6355 10.1599 69.8112 8.90589C70.9934 7.64533 72.6817 7.01505 74.8763 7.01505C77.0774 7.01505 78.7625 7.6486 79.9316 8.91569C81.1007 10.1828 81.6853 12.005 81.6853 14.3825C81.6853 16.7534 81.0975 18.5756 79.9218 19.8493C78.7461 21.1229 77.061 21.7597 74.8665 21.7597C72.6719 21.7597 70.9868 21.1229 69.8112 19.8493ZM74.8861 9.5427C73.6778 9.5427 72.7666 9.95092 72.1527 10.7673C71.5387 11.5772 71.2318 12.7823 71.2318 14.3825C71.2318 17.6025 72.4433 19.2124 74.8665 19.2124C77.2896 19.2124 78.5012 17.6025 78.5012 14.3825C78.5012 11.156 77.2962 9.5427 74.8861 9.5427Z" fill="#39393A"/>
<path d="M97.3606 21.5637H93.5006L87.2696 10.7282H87.1814C87.3055 12.5896 87.3676 13.9547 87.3676 14.8233V21.5637H84.6538V7.24038H88.4845L94.7056 17.9682H94.7742C94.6762 16.1068 94.6273 14.7907 94.6273 14.02V7.24038H97.3606V21.5637Z" fill="#39393A"/>
<path d="M100.084 18.076C101.077 18.5136 101.903 18.8206 102.563 18.9969C103.229 19.1667 103.866 19.2516 104.473 19.2516C105.087 19.2516 105.571 19.1243 105.923 18.8695C106.276 18.6148 106.452 18.236 106.452 17.7331C106.452 17.4522 106.377 17.2073 106.227 16.9983C106.077 16.7828 105.845 16.5705 105.531 16.3615C105.224 16.146 104.617 15.8259 103.709 15.4014C102.801 14.9703 102.132 14.5686 101.701 14.1963C100.741 13.3668 100.261 12.3283 100.261 11.0808C100.261 9.83335 100.688 8.84711 101.544 8.12212C102.406 7.39714 103.595 7.03464 105.11 7.03464C106.384 7.03464 107.801 7.37101 109.362 8.04375L108.382 10.4048C107.644 10.1044 107.021 9.88887 106.511 9.75824C106.002 9.62761 105.482 9.5623 104.953 9.5623C104.431 9.5623 104.013 9.69619 103.699 9.96398C103.386 10.2252 103.229 10.5747 103.229 11.0123C103.229 11.2801 103.288 11.5152 103.405 11.7177C103.53 11.9136 103.725 12.1063 103.993 12.2957C104.268 12.4786 104.914 12.8117 105.933 13.295C107.266 13.9285 108.18 14.5719 108.676 15.225C109.179 15.852 109.431 16.6391 109.431 17.5861C109.431 18.8663 108.964 19.8884 108.03 20.6526C107.096 21.3907 105.832 21.7597 104.238 21.7597C102.645 21.7597 101.26 21.4723 100.084 20.8975V18.076Z" fill="#39393A"/>
<path d="M123.685 7.24038V16.5084C123.685 16.528 123.685 16.5476 123.685 16.5672C123.685 18.1348 123.156 19.3921 122.098 20.3391C121.04 21.2862 119.626 21.7597 117.856 21.7597C117.824 21.7597 117.788 21.7597 117.748 21.7597C115.907 21.7597 114.476 21.2862 113.457 20.3391C112.438 19.3921 111.929 18.1021 111.929 16.4693V7.24038H114.956V16.0088C114.956 17.1191 115.182 17.9323 115.632 18.4483C116.083 18.9577 116.808 19.2124 117.807 19.2124C118.807 19.2124 119.531 18.9545 119.982 18.4385C120.433 17.9225 120.658 17.1061 120.658 15.9892V7.24038H123.685Z" fill="#39393A"/>
<path d="M130.23 19.0557H136.04V21.5637H127.193V7.24038H130.23V19.0557Z" fill="#39393A"/>
<path d="M147.953 9.76804H144.063V21.5637H141.026V9.76804H137.137V7.24038H147.953V9.76804Z" fill="#39393A"/>
<path d="M153.194 21.5637H150.157V7.24038H153.194V21.5637Z" fill="#39393A"/>
<path d="M169.507 21.5637H165.646L159.416 10.7282H159.327C159.451 12.5896 159.513 13.9547 159.513 14.8233V21.5637H156.8V7.24038H160.63L166.852 17.9682H166.92C166.822 16.1068 166.773 14.7907 166.773 14.02V7.24038H169.507V21.5637Z" fill="#39393A"/>
<path d="M184.241 13.5203V20.9465C182.569 21.4886 180.871 21.7597 179.147 21.7597C176.992 21.7597 175.339 21.1261 174.19 19.8591C173.053 18.5854 172.485 16.7762 172.485 14.4315C172.485 12.0867 173.145 10.2677 174.464 8.97447C175.79 7.68125 177.625 7.03464 179.97 7.03464C181.439 7.03464 182.857 7.32856 184.222 7.91638L183.213 10.3461C182.155 9.82355 181.067 9.5623 179.95 9.5623C178.637 9.5623 177.586 10.0064 176.796 10.8947C176.005 11.7764 175.61 12.9782 175.61 14.5C175.61 16.0153 175.927 17.1844 176.56 18.0074C177.201 18.8238 178.128 19.232 179.343 19.232C179.957 19.232 180.6 19.1667 181.273 19.0361V16.048H178.559V13.5203H184.241Z" fill="#39393A"/>
<path d="M58.82 30.4169C58.5236 30.4169 58.268 30.5004 58.0533 30.6674C57.842 30.8344 57.6682 31.0644 57.5319 31.3574C57.399 31.6471 57.3002 31.9793 57.2355 32.3542C57.1741 32.7256 57.1435 33.1175 57.1435 33.5299C57.1435 34.1705 57.2133 34.7225 57.353 35.186C57.4962 35.6494 57.6972 36.0072 57.9562 36.2594C58.2152 36.5082 58.5202 36.6325 58.8712 36.6325C59.0824 36.6325 59.2818 36.6053 59.4692 36.5508C59.6566 36.4962 59.8287 36.4298 59.9855 36.3514V37.0875C59.8219 37.1829 59.6396 37.2527 59.4385 37.297C59.2375 37.3448 59.0177 37.3686 58.7792 37.3686C58.2714 37.3686 57.8318 37.2153 57.4604 36.9086C57.0889 36.6019 56.8027 36.1623 56.6016 35.5898C56.4006 35.0139 56.3001 34.3238 56.3001 33.5196C56.3001 32.9914 56.3495 32.4956 56.4483 32.0322C56.5505 31.5687 56.7039 31.1598 56.9083 30.8054C57.1162 30.451 57.3769 30.175 57.6904 29.9773C58.0039 29.7763 58.3719 29.6758 58.7945 29.6758C59.0398 29.6758 59.275 29.7081 59.4999 29.7729C59.7282 29.8342 59.9463 29.9245 60.1542 30.0438L59.8628 30.7338C59.706 30.635 59.5408 30.5583 59.367 30.5038C59.1932 30.4459 59.0109 30.4169 58.82 30.4169Z" fill="#39393A"/>
<path d="M80.9865 33.5196C80.9865 34.0546 80.9439 34.5556 80.8587 35.0224C80.7735 35.4859 80.6389 35.8948 80.4549 36.2492C80.2743 36.6002 80.0358 36.8745 79.7393 37.0721C79.4428 37.2698 79.0833 37.3686 78.6608 37.3686C78.2314 37.3686 77.8668 37.2681 77.5669 37.067C77.267 36.8626 77.0251 36.5831 76.8411 36.2287C76.6605 35.8743 76.5276 35.4637 76.4424 34.9969C76.3606 34.53 76.3197 34.0342 76.3197 33.5094C76.3197 32.6575 76.4066 31.9487 76.5804 31.383C76.7576 30.8173 77.02 30.3931 77.3675 30.1102C77.7151 29.8274 78.1462 29.686 78.6608 29.686C79.2196 29.686 79.6694 29.8564 80.0102 30.1971C80.351 30.5345 80.598 30.9928 80.7514 31.5721C80.9081 32.1514 80.9865 32.8006 80.9865 33.5196ZM77.1631 33.5196C77.1631 34.1978 77.2193 34.7685 77.3318 35.232C77.4476 35.692 77.6163 36.0396 77.8378 36.2747C78.0593 36.5099 78.3302 36.6274 78.6505 36.6274C78.9777 36.6274 79.2503 36.5133 79.4684 36.285C79.6865 36.0532 79.8501 35.7074 79.9591 35.2473C80.0715 34.7839 80.1278 34.208 80.1278 33.5196C80.1278 32.4939 80.0051 31.7221 79.7597 31.2041C79.5144 30.6861 79.1481 30.4271 78.6608 30.4271C78.3268 30.4271 78.0491 30.5447 77.8276 30.7798C77.6061 31.0116 77.4391 31.3574 77.3267 31.8175C77.2176 32.2741 77.1631 32.8415 77.1631 33.5196Z" fill="#39393A"/>
<path d="M100.239 37.2664L98.4248 30.9179H98.3839C98.3976 31.1462 98.4078 31.3523 98.4146 31.5364C98.4248 31.717 98.4316 31.8737 98.435 32.0066C98.4384 32.1395 98.4401 32.2486 98.4401 32.3337V37.2664H97.6683V29.7933H98.8184L100.602 36.0089H100.633L102.422 29.7933H103.587V37.2664H102.79V32.3542C102.79 32.2622 102.792 32.148 102.795 32.0117C102.799 31.8754 102.804 31.717 102.811 31.5364C102.821 31.3523 102.829 31.1462 102.836 30.9179H102.8L100.986 37.2664H100.239Z" fill="#39393A"/>
<path d="M121.839 29.7933C122.571 29.7933 123.111 29.9705 123.459 30.3249C123.81 30.6793 123.985 31.2314 123.985 31.9811C123.985 32.3661 123.939 32.7052 123.847 32.9982C123.759 33.2879 123.624 33.5316 123.444 33.7292C123.266 33.9268 123.041 34.0768 122.769 34.179C122.5 34.2778 122.183 34.3272 121.818 34.3272H121.312V37.2664H120.499V29.7933H121.839ZM121.808 30.5089H121.312V33.6065H121.746C122.077 33.6065 122.345 33.552 122.549 33.443C122.757 33.3339 122.909 33.1601 123.004 32.9216C123.103 32.683 123.152 32.3729 123.152 31.9913C123.152 31.4631 123.043 31.0848 122.825 30.8565C122.607 30.6248 122.268 30.5089 121.808 30.5089Z" fill="#39393A"/>
<path d="M143.463 37.2664L142.901 34.864H141.127L140.565 37.2664H139.696L141.5 29.7933H142.487L144.327 37.2664H143.463ZM142.748 34.1126L142.175 31.5772C142.151 31.4512 142.127 31.3285 142.103 31.2092C142.083 31.0865 142.063 30.969 142.042 30.8565C142.025 30.7407 142.008 30.6282 141.991 30.5192C141.981 30.6282 141.967 30.7407 141.95 30.8565C141.933 30.9724 141.913 31.0899 141.889 31.2092C141.865 31.3251 141.839 31.4443 141.812 31.567L141.255 34.1126H142.748Z" fill="#39393A"/>
<path d="M164.837 37.2664H163.851L161.244 31.0814H161.203C161.217 31.262 161.227 31.4375 161.234 31.6079C161.244 31.7749 161.251 31.9368 161.254 32.0935C161.258 32.2503 161.259 32.4036 161.259 32.5535V37.2664H160.487V29.7933H161.469L164.081 35.8863H164.111C164.101 35.6852 164.091 35.4961 164.081 35.3189C164.074 35.1417 164.069 34.9764 164.065 34.8231C164.062 34.6663 164.06 34.5232 164.06 34.3937V29.7933H164.837V37.2664Z" fill="#39393A"/>
<path d="M182.996 33.3816L184.146 29.7933H185L183.395 34.3579V37.2664H182.582V34.3784L180.982 29.7933H181.831L182.996 33.3816Z" fill="#39393A"/>
</svg>
