<svg width="128" height="30" viewBox="0 0 128 30" fill="none" xmlns="http://www.w3.org/2000/svg">
<path d="M26.8743 5.83367L18.4077 14.2862C17.9696 14.7236 17.9693 15.4336 18.4071 15.8714L26.7988 24.2631C28.804 21.7127 29.9999 18.496 29.9999 15C29.9999 11.5481 28.8339 8.36853 26.8743 5.83367Z" fill="#39393A"/>
<path d="M25.3649 4.15706L15.2366 14.2869C14.7994 14.7242 14.7991 15.433 15.236 15.8706L25.275 25.9282C24.848 26.3298 24.3974 26.7068 23.9256 27.0566L12.92 15.8614C12.4924 15.4264 12.4913 14.7293 12.9175 14.293L23.9712 2.97738C24.4596 3.3424 24.925 3.73648 25.3649 4.15706Z" fill="#39393A"/>
<path d="M21.9193 28.3123L12.1503 18.5228V29.7297C13.0729 29.9071 14.0256 30 15 30C17.4957 30 19.849 29.3905 21.9193 28.3123Z" fill="#39393A"/>
<path d="M9.90939 29.1142V0.885879C9.30971 1.10221 8.72777 1.35566 8.16636 1.64348V28.3566C8.72777 28.6444 9.30971 28.8978 9.90939 29.1142Z" fill="#39393A"/>
<path d="M5.9255 26.9448V3.05522C2.32456 5.79509 0 10.1261 0 15C0 19.874 2.32456 24.205 5.9255 26.9448Z" fill="#39393A"/>
<path d="M12.1503 0.270352V11.5309L21.9549 1.70636C19.876 0.61651 17.51 0 15 0C14.0256 0 13.0729 0.0929093 12.1503 0.270352Z" fill="#39393A"/>
<path d="M42.4221 14.8348C40.9891 14.8348 39.893 14.4013 39.1338 13.5343C38.3746 12.6673 37.9951 11.4185 37.9951 9.78781C37.9951 9.76535 37.9951 9.74289 37.9951 9.72043C37.9951 8.73215 38.1815 7.85618 38.5543 7.0925C38.9272 6.32434 39.4595 5.73587 40.1513 5.32708C40.8431 4.9138 41.636 4.70716 42.5299 4.70716C42.5614 4.70716 42.5905 4.70716 42.6175 4.70716C43.5833 4.70716 44.5446 4.9385 45.5015 5.4012L44.8277 7.09924C43.9157 6.6635 43.179 6.44563 42.6175 6.44563C41.8314 6.44563 41.2227 6.74211 40.7914 7.33508C40.3602 7.92356 40.1446 8.74563 40.1446 9.80129C40.1446 11.998 40.9689 13.0963 42.6175 13.0963C43.3048 13.0963 44.1426 12.9234 45.1309 12.5775V14.3294C44.3223 14.6663 43.4194 14.8348 42.4221 14.8348Z" fill="#39393A"/>
<path d="M48.0149 13.5208C47.2063 12.6448 46.802 11.387 46.802 9.74738C46.802 8.10774 47.2063 6.85667 48.0149 5.99417C48.8279 5.12718 49.9892 4.69368 51.4985 4.69368C53.0124 4.69368 54.1714 5.12942 54.9755 6.00091C55.7796 6.87239 56.1816 8.12571 56.1816 9.76086C56.1816 11.3915 55.7773 12.6448 54.9688 13.5208C54.1602 14.3968 53.0012 14.8348 51.4918 14.8348C49.9824 14.8348 48.8234 14.3968 48.0149 13.5208ZM51.5053 6.43215C50.6742 6.43215 50.0476 6.71292 49.6253 7.27444C49.203 7.83147 48.9919 8.66028 48.9919 9.76086C48.9919 11.9755 49.8252 13.0828 51.4918 13.0828C53.1584 13.0828 53.9917 11.9755 53.9917 9.76086C53.9917 7.54172 53.1629 6.43215 51.5053 6.43215Z" fill="#39393A"/>
<path d="M66.9629 14.7H64.308L60.0225 7.24748H59.9618C60.0472 8.52776 60.0898 9.46662 60.0898 10.0641V14.7H58.2233V4.84866H60.858L65.1368 12.2271H65.184C65.1166 10.9468 65.0829 10.0416 65.0829 9.51154V4.84866H66.9629V14.7Z" fill="#39393A"/>
<path d="M68.8361 12.3012C69.5189 12.6022 70.0872 12.8133 70.5409 12.9346C70.9991 13.0514 71.4371 13.1098 71.8549 13.1098C72.2771 13.1098 72.6095 13.0222 72.8521 12.847C73.0947 12.6718 73.216 12.4112 73.216 12.0653C73.216 11.8722 73.1643 11.7037 73.061 11.56C72.9577 11.4117 72.7982 11.2657 72.5826 11.122C72.3715 10.9737 71.9537 10.7536 71.3293 10.4616C70.7049 10.1652 70.2444 9.88889 69.9479 9.63283C69.2876 9.06233 68.9574 8.34807 68.9574 7.49006C68.9574 6.63206 69.2516 5.95374 69.8401 5.45511C70.4331 4.95647 71.2507 4.70716 72.2928 4.70716C73.1688 4.70716 74.1436 4.9385 75.2173 5.4012L74.5434 7.02512C74.0358 6.81848 73.6068 6.67024 73.2564 6.5804C72.906 6.49055 72.5489 6.44563 72.185 6.44563C71.8257 6.44563 71.5382 6.53772 71.3225 6.7219C71.1069 6.90159 70.9991 7.14192 70.9991 7.44289C70.9991 7.62707 71.0395 7.78879 71.1204 7.92805C71.2057 8.06282 71.3405 8.19533 71.5247 8.32561C71.7133 8.45139 72.1581 8.68049 72.8589 9.01291C73.7753 9.44865 74.4042 9.89113 74.7456 10.3404C75.0915 10.7716 75.2644 11.3129 75.2644 11.9643C75.2644 12.8447 74.9432 13.5478 74.3008 14.0734C73.6585 14.581 72.7892 14.8348 71.6931 14.8348C70.597 14.8348 69.6447 14.6371 68.8361 14.2418V12.3012Z" fill="#39393A"/>
<path d="M85.0686 4.84866V11.2231C85.0686 11.2365 85.0686 11.25 85.0686 11.2635C85.0686 12.3416 84.7047 13.2064 83.977 13.8577C83.2493 14.5091 82.2767 14.8348 81.0593 14.8348C81.0369 14.8348 81.0122 14.8348 80.9852 14.8348C79.7184 14.8348 78.7346 14.5091 78.0339 13.8577C77.3331 13.2064 76.9827 12.3192 76.9827 11.1961V4.84866H79.0648V10.8794C79.0648 11.6431 79.2198 12.2024 79.5297 12.5572C79.8397 12.9076 80.3383 13.0828 81.0256 13.0828C81.7129 13.0828 82.2116 12.9054 82.5215 12.5505C82.8315 12.1956 82.9865 11.6341 82.9865 10.8659V4.84866H85.0686Z" fill="#39393A"/>
<path d="M89.5698 12.975H93.5656V14.7H87.4809V4.84866H89.5698V12.975Z" fill="#39393A"/>
<path d="M101.759 6.58713H99.0842V14.7H96.9953V6.58713H94.3202V4.84866H101.759V6.58713Z" fill="#39393A"/>
<path d="M105.364 14.7H103.275V4.84866H105.364V14.7Z" fill="#39393A"/>
<path d="M116.583 14.7H113.929L109.643 7.24748H109.582C109.668 8.52776 109.71 9.46662 109.71 10.0641V14.7H107.844V4.84866H110.479L114.757 12.2271H114.805C114.737 10.9468 114.704 10.0416 114.704 9.51154V4.84866H116.583V14.7Z" fill="#39393A"/>
<path d="M126.718 9.16789V14.2755C125.568 14.6484 124.4 14.8348 123.214 14.8348C121.732 14.8348 120.595 14.399 119.804 13.5276C119.023 12.6516 118.632 11.4072 118.632 9.79455C118.632 8.18186 119.086 6.93079 119.993 6.04133C120.905 5.15188 122.167 4.70716 123.78 4.70716C124.791 4.70716 125.766 4.90931 126.704 5.3136L126.01 6.98469C125.283 6.62532 124.535 6.44563 123.766 6.44563C122.864 6.44563 122.14 6.7511 121.597 7.36204C121.053 7.96848 120.781 8.79504 120.781 9.84172C120.781 10.8839 120.999 11.688 121.435 12.254C121.875 12.8155 122.513 13.0963 123.349 13.0963C123.771 13.0963 124.213 13.0514 124.676 12.9615V10.9064H122.81V9.16789H126.718Z" fill="#39393A"/>
<path d="M40.4554 20.7891C40.2514 20.7891 40.0757 20.8465 39.928 20.9613C39.7827 21.0762 39.6632 21.2344 39.5694 21.4359C39.478 21.6352 39.41 21.8637 39.3655 22.1215C39.3233 22.377 39.3022 22.6465 39.3022 22.9301C39.3022 23.3707 39.3503 23.7504 39.4464 24.0691C39.5448 24.3879 39.6831 24.634 39.8612 24.8074C40.0393 24.9785 40.2491 25.0641 40.4905 25.0641C40.6358 25.0641 40.7729 25.0453 40.9018 25.0078C41.0307 24.9703 41.1491 24.9246 41.2569 24.8707V25.3769C41.1444 25.4426 41.019 25.4906 40.8807 25.5211C40.7425 25.5539 40.5913 25.5703 40.4272 25.5703C40.078 25.5703 39.7757 25.4648 39.5202 25.2539C39.2647 25.043 39.0679 24.7406 38.9296 24.3469C38.7913 23.9508 38.7222 23.4762 38.7222 22.923C38.7222 22.5598 38.7561 22.2187 38.8241 21.9C38.8944 21.5812 38.9999 21.3 39.1405 21.0562C39.2835 20.8125 39.4628 20.6227 39.6784 20.4867C39.894 20.3484 40.1471 20.2793 40.4378 20.2793C40.6065 20.2793 40.7682 20.3016 40.9229 20.3461C41.08 20.3883 41.23 20.4504 41.3729 20.5324L41.1725 21.007C41.0647 20.9391 40.9511 20.8863 40.8315 20.8488C40.712 20.809 40.5866 20.7891 40.4554 20.7891Z" fill="#39393A"/>
<path d="M55.701 22.923C55.701 23.291 55.6717 23.6355 55.6132 23.9566C55.5546 24.2754 55.462 24.5566 55.3354 24.8004C55.2112 25.0418 55.0471 25.2305 54.8432 25.3664C54.6393 25.5023 54.3921 25.5703 54.1014 25.5703C53.8061 25.5703 53.5553 25.5012 53.3491 25.3629C53.1428 25.2223 52.9764 25.0301 52.8499 24.7863C52.7257 24.5426 52.6343 24.2602 52.5757 23.9391C52.5194 23.618 52.4913 23.2769 52.4913 22.916C52.4913 22.3301 52.551 21.8426 52.6706 21.4535C52.7925 21.0645 52.9729 20.7727 53.212 20.5781C53.451 20.3836 53.7475 20.2863 54.1014 20.2863C54.4858 20.2863 54.7952 20.4035 55.0296 20.6379C55.2639 20.8699 55.4339 21.1852 55.5393 21.5836C55.6471 21.982 55.701 22.4285 55.701 22.923ZM53.0714 22.923C53.0714 23.3894 53.11 23.782 53.1874 24.1008C53.2671 24.4172 53.3831 24.6562 53.5354 24.818C53.6878 24.9797 53.8741 25.0605 54.0944 25.0605C54.3194 25.0605 54.5069 24.982 54.6569 24.825C54.8069 24.6656 54.9194 24.4277 54.9944 24.1113C55.0717 23.7926 55.1104 23.3965 55.1104 22.923C55.1104 22.2176 55.026 21.6867 54.8573 21.3305C54.6885 20.9742 54.4366 20.7961 54.1014 20.7961C53.8717 20.7961 53.6807 20.877 53.5284 21.0387C53.376 21.198 53.2612 21.4359 53.1839 21.7523C53.1089 22.0664 53.0714 22.4566 53.0714 22.923Z" fill="#39393A"/>
<path d="M68.9428 25.5L67.6948 21.1336H67.6667C67.676 21.2906 67.6831 21.4324 67.6878 21.559C67.6948 21.6832 67.6995 21.791 67.7018 21.8824C67.7042 21.9738 67.7053 22.0488 67.7053 22.1074V25.5H67.1745V20.3602H67.9655L69.1924 24.6351H69.2135L70.444 20.3602H71.2456V25.5H70.6971V22.1215C70.6971 22.0582 70.6983 21.9797 70.7006 21.8859C70.703 21.7922 70.7065 21.6832 70.7112 21.559C70.7182 21.4324 70.7241 21.2906 70.7288 21.1336H70.7042L69.4561 25.5H68.9428Z" fill="#39393A"/>
<path d="M83.7983 20.3602C84.3022 20.3602 84.6737 20.482 84.9127 20.7258C85.1541 20.9695 85.2748 21.3492 85.2748 21.8648C85.2748 22.1297 85.2432 22.3629 85.1799 22.5645C85.119 22.7637 85.0264 22.9312 84.9022 23.0672C84.7803 23.2031 84.6256 23.3062 84.4381 23.3766C84.253 23.4445 84.035 23.4785 83.7842 23.4785H83.4362V25.5H82.8772V20.3602H83.7983ZM83.7772 20.8523H83.4362V22.9828H83.735C83.9624 22.9828 84.1463 22.9453 84.287 22.8703C84.4299 22.7953 84.5342 22.6758 84.5999 22.5117C84.6678 22.3477 84.7018 22.1344 84.7018 21.8719C84.7018 21.5086 84.6268 21.2484 84.4768 21.0914C84.3268 20.932 84.0936 20.8523 83.7772 20.8523Z" fill="#39393A"/>
<path d="M98.6713 25.5L98.2846 23.8477H97.0647L96.678 25.5H96.0803L97.3213 20.3602H97.9998L99.2655 25.5H98.6713ZM98.1791 23.3309L97.7854 21.5871C97.769 21.5004 97.7526 21.416 97.7362 21.334C97.7221 21.2496 97.708 21.1687 97.694 21.0914C97.6823 21.0117 97.6705 20.9344 97.6588 20.8594C97.6518 20.9344 97.6424 21.0117 97.6307 21.0914C97.619 21.1711 97.6049 21.252 97.5885 21.334C97.5721 21.4137 97.5545 21.4957 97.5358 21.5801L97.1526 23.3309H98.1791Z" fill="#39393A"/>
<path d="M113.372 25.5H112.694L110.901 21.2461H110.872C110.882 21.3703 110.889 21.491 110.894 21.6082C110.901 21.723 110.905 21.8344 110.908 21.9422C110.91 22.05 110.911 22.1555 110.911 22.2586V25.5H110.38V20.3602H111.055L112.852 24.5508H112.873C112.866 24.4125 112.859 24.2824 112.852 24.1605C112.847 24.0387 112.844 23.925 112.841 23.8195C112.839 23.7117 112.838 23.6133 112.838 23.5242V20.3602H113.372V25.5Z" fill="#39393A"/>
<path d="M125.862 22.8281L126.653 20.3602H127.24L126.136 23.4996V25.5H125.577V23.5137L124.476 20.3602H125.06L125.862 22.8281Z" fill="#39393A"/>
</svg>
