<svg width="145" height="39" viewBox="0 0 145 39" fill="none" xmlns="http://www.w3.org/2000/svg">
<path d="M34.6172 7.81907L23.8925 18.5261C23.3374 19.0802 23.3371 19.9794 23.8916 20.534L34.5217 31.1641C37.0618 27.9334 38.5768 23.8588 38.5768 19.4303C38.5768 15.0576 37.0997 11.03 34.6172 7.81907Z" fill="white"/>
<path d="M32.7052 5.69544L19.8757 18.527C19.3219 19.0809 19.3215 19.9787 19.8749 20.533L32.5915 33.273C32.0505 33.7818 31.4798 34.2592 30.8821 34.7024L16.9413 20.5214C16.3997 19.9704 16.3983 19.0874 16.9382 18.5347L30.9399 4.20123C31.5585 4.66357 32.1481 5.16272 32.7052 5.69544Z" fill="white"/>
<path d="M28.3408 36.2928L15.9663 23.8924V38.0877C17.1353 38.3126 18.3423 38.4303 19.5769 38.4303C22.7379 38.4303 25.7186 37.6584 28.3408 36.2928Z" fill="white"/>
<path d="M13.1279 37.3079V1.55274C12.3683 1.8268 11.6312 2.14789 10.92 2.5125V36.3481C11.6312 36.7127 12.3683 37.0338 13.1279 37.3079Z" fill="white"/>
<path d="M8.08162 34.5597V4.30093C3.52096 7.77146 0.576904 13.2571 0.576904 19.4303C0.576904 25.6035 3.52096 31.0892 8.08162 34.5597Z" fill="white"/>
<path d="M15.9663 0.772918L15.9663 15.0361L28.3858 2.59136C25.7527 1.21109 22.756 0.430298 19.5769 0.430298C18.3423 0.430298 17.1353 0.548044 15.9663 0.772918Z" fill="white"/>
<path d="M56.2011 17.4286C54.7017 17.4286 53.5547 16.975 52.7604 16.0678C51.966 15.1606 51.5688 13.8539 51.5688 12.1476C51.5688 12.1241 51.5688 12.1006 51.5688 12.0771C51.5688 11.043 51.7639 10.1264 52.154 9.32729C52.5441 8.52351 53.1011 7.90774 53.825 7.47999C54.5489 7.04755 55.3785 6.83132 56.3139 6.83132C56.3468 6.83132 56.3774 6.83132 56.4056 6.83132C57.4162 6.83132 58.4221 7.0734 59.4233 7.55755L58.7183 9.33434C57.7641 8.87839 56.9932 8.65042 56.4056 8.65042C55.583 8.65042 54.9461 8.96065 54.4948 9.58112C54.0436 10.1969 53.818 11.0571 53.818 12.1617C53.818 14.4602 54.6805 15.6095 56.4056 15.6095C57.1248 15.6095 58.0014 15.4286 59.0355 15.0666V16.8998C58.1894 17.2524 57.2446 17.4286 56.2011 17.4286Z" fill="white"/>
<path d="M62.0533 16.0537C61.2072 15.1371 60.7841 13.821 60.7841 12.1053C60.7841 10.3896 61.2072 9.08052 62.0533 8.17802C62.9041 7.27082 64.1191 6.81722 65.6985 6.81722C67.2826 6.81722 68.4953 7.27317 69.3367 8.18507C70.1781 9.09697 70.5988 10.4084 70.5988 12.1194C70.5988 13.8257 70.1757 15.1371 69.3297 16.0537C68.4836 16.9703 67.2708 17.4286 65.6915 17.4286C64.1121 17.4286 62.8994 16.9703 62.0533 16.0537ZM65.7056 8.63632C64.836 8.63632 64.1802 8.9301 63.7384 9.51766C63.2965 10.1005 63.0756 10.9678 63.0756 12.1194C63.0756 14.4367 63.9476 15.5954 65.6915 15.5954C67.4353 15.5954 68.3073 14.4367 68.3073 12.1194C68.3073 9.79734 67.44 8.63632 65.7056 8.63632Z" fill="white"/>
<path d="M81.88 17.2876H79.102L74.6177 9.48946H74.5543C74.6436 10.8291 74.6882 11.8115 74.6882 12.4367V17.2876H72.7352V6.97939H75.492L79.9693 14.7H80.0186C79.9481 13.3603 79.9129 12.4132 79.9129 11.8585V6.97939H81.88V17.2876Z" fill="white"/>
<path d="M83.8401 14.7775C84.5546 15.0925 85.1492 15.3134 85.624 15.4403C86.1034 15.5625 86.5617 15.6236 86.9989 15.6236C87.4407 15.6236 87.7886 15.532 88.0424 15.3486C88.2962 15.1653 88.4231 14.8927 88.4231 14.5308C88.4231 14.3286 88.3691 14.1524 88.261 14.0019C88.1528 13.8468 87.986 13.6941 87.7604 13.5436C87.5394 13.3885 87.1023 13.1582 86.4489 12.8527C85.7955 12.5424 85.3137 12.2534 85.0035 11.9854C84.3125 11.3885 83.967 10.6411 83.967 9.74329C83.967 8.84549 84.2749 8.13571 84.8907 7.61396C85.5112 7.0922 86.3667 6.83132 87.4572 6.83132C88.3738 6.83132 89.3938 7.0734 90.5172 7.55755L89.8121 9.25678C89.281 9.04056 88.8321 8.88544 88.4654 8.79143C88.0988 8.69742 87.7251 8.65042 87.3444 8.65042C86.9683 8.65042 86.6675 8.74678 86.4419 8.9395C86.2162 9.12752 86.1034 9.379 86.1034 9.69393C86.1034 9.88665 86.1457 10.0559 86.2303 10.2016C86.3196 10.3426 86.4607 10.4813 86.6534 10.6176C86.8508 10.7492 87.3162 10.9889 88.0494 11.3368C89.0083 11.7927 89.6664 12.2557 90.0236 12.7258C90.3856 13.177 90.5666 13.7434 90.5666 14.425C90.5666 15.3463 90.2305 16.0819 89.5583 16.6319C88.8861 17.163 87.9766 17.4286 86.8297 17.4286C85.6827 17.4286 84.6862 17.2218 83.8401 16.8082V14.7775Z" fill="white"/>
<path d="M100.825 6.97939V13.6494C100.825 13.6635 100.825 13.6776 100.825 13.6917C100.825 14.8198 100.445 15.7247 99.6832 16.4063C98.9217 17.0878 97.9041 17.4286 96.6302 17.4286C96.6067 17.4286 96.5809 17.4286 96.5526 17.4286C95.2271 17.4286 94.1977 17.0878 93.4644 16.4063C92.7311 15.7247 92.3645 14.7963 92.3645 13.6212V6.97939H94.5432V13.2898C94.5432 14.0889 94.7054 14.6741 95.0297 15.0455C95.354 15.4121 95.8758 15.5954 96.595 15.5954C97.3141 15.5954 97.8359 15.4098 98.1602 15.0384C98.4846 14.6671 98.6467 14.0795 98.6467 13.2757V6.97939H100.825Z" fill="white"/>
<path d="M105.535 15.4826H109.716V17.2876H103.35V6.97939H105.535V15.4826Z" fill="white"/>
<path d="M118.29 8.79849H115.491V17.2876H113.305V8.79849H110.506V6.97939H118.29V8.79849Z" fill="white"/>
<path d="M122.062 17.2876H119.877V6.97939H122.062V17.2876Z" fill="white"/>
<path d="M133.802 17.2876H131.024L126.54 9.48946H126.476C126.565 10.8291 126.61 11.8115 126.61 12.4367V17.2876H124.657V6.97939H127.414L131.891 14.7H131.94C131.87 13.3603 131.835 12.4132 131.835 11.8585V6.97939H133.802V17.2876Z" fill="white"/>
<path d="M144.406 11.4989V16.8434C143.203 17.2335 141.981 17.4286 140.74 17.4286C139.189 17.4286 137.999 16.9727 137.172 16.0608C136.354 15.1442 135.945 13.8421 135.945 12.1546C135.945 10.4672 136.42 9.15807 137.37 8.22737C138.324 7.29667 139.645 6.83132 141.332 6.83132C142.39 6.83132 143.41 7.04284 144.392 7.46589L143.666 9.21448C142.904 8.83844 142.122 8.65042 141.318 8.65042C140.373 8.65042 139.616 8.97005 139.048 9.60932C138.479 10.2439 138.194 11.1088 138.194 12.204C138.194 13.2945 138.422 14.1359 138.878 14.7282C139.339 15.3157 140.007 15.6095 140.881 15.6095C141.323 15.6095 141.786 15.5625 142.27 15.4685V13.318H140.317V11.4989H144.406Z" fill="white"/>
<path d="M56.2011 33.1418C54.7017 33.1418 53.5547 32.6882 52.7604 31.781C51.966 30.8738 51.5688 29.567 51.5688 27.8608C51.5688 27.8372 51.5688 27.8137 51.5688 27.7902C51.5688 26.7561 51.7639 25.8395 52.154 25.0404C52.5441 24.2367 53.1011 23.6209 53.825 23.1931C54.5489 22.7607 55.3785 22.5445 56.3139 22.5445C56.3468 22.5445 56.3774 22.5445 56.4056 22.5445C57.4162 22.5445 58.4221 22.7866 59.4233 23.2707L58.7183 25.0475C57.7641 24.5915 56.9932 24.3636 56.4056 24.3636C55.583 24.3636 54.9461 24.6738 54.4948 25.2943C54.0436 25.91 53.818 26.7702 53.818 27.8749C53.818 30.1734 54.6805 31.3227 56.4056 31.3227C57.1248 31.3227 58.0014 31.1417 59.0355 30.7798V32.613C58.1894 32.9655 57.2446 33.1418 56.2011 33.1418Z" fill="white"/>
<path d="M62.0533 31.7669C61.2072 30.8503 60.7841 29.5341 60.7841 27.8184C60.7841 26.1028 61.2072 24.7937 62.0533 23.8912C62.9041 22.984 64.1191 22.5304 65.6985 22.5304C67.2826 22.5304 68.4953 22.9863 69.3367 23.8982C70.1781 24.8101 70.5988 26.1216 70.5988 27.8325C70.5988 29.5388 70.1757 30.8503 69.3297 31.7669C68.4836 32.6835 67.2708 33.1418 65.6915 33.1418C64.1121 33.1418 62.8994 32.6835 62.0533 31.7669ZM65.7056 24.3495C64.836 24.3495 64.1802 24.6433 63.7384 25.2308C63.2965 25.8137 63.0756 26.6809 63.0756 27.8325C63.0756 30.1499 63.9476 31.3086 65.6915 31.3086C67.4353 31.3086 68.3073 30.1499 68.3073 27.8325C68.3073 25.5105 67.44 24.3495 65.7056 24.3495Z" fill="white"/>
<path d="M83.7555 33.0008H81.7178V28.1216C81.7178 27.7926 81.7202 27.5317 81.7249 27.339C81.7296 27.1463 81.7625 26.3425 81.8236 24.9276H81.7602L79.102 33.0008H77.0996L74.6177 24.9135H74.5543C74.6436 26.5164 74.6882 27.614 74.6882 28.2062V33.0008H72.7352V22.6925H75.7106L78.1502 30.5753H78.1925L80.7801 22.6925H83.7555V33.0008Z" fill="white"/>
<path d="M86.3572 22.6925H89.65C90.905 22.6925 91.8568 22.9628 92.5055 23.5034C93.1542 24.0439 93.4785 24.8595 93.4785 25.95C93.4785 27.0358 93.1307 27.8725 92.435 28.4601C91.7393 29.0429 90.7546 29.3344 89.4807 29.3344H88.543V33.0008H86.3572V22.6925ZM88.543 24.4834V27.5435H89.2622C90.6018 27.5435 91.2716 27.0264 91.2716 25.9923C91.2716 25.4752 91.1306 25.0945 90.8486 24.8501C90.5713 24.6056 90.1341 24.4834 89.5371 24.4834H88.543Z" fill="white"/>
<path d="M104.09 33.0008H101.735L100.981 30.5471H97.2295L96.4821 33.0008H94.1272L97.7654 22.6502H100.438L104.09 33.0008ZM100.466 28.7139L99.2954 24.9417C99.2061 24.6315 99.145 24.4012 99.1121 24.2508C98.957 24.8477 98.5128 26.3354 97.7795 28.7139H100.466Z" fill="white"/>
<path d="M114.539 33.0008H111.761L107.277 25.2026H107.213C107.303 26.5423 107.347 27.5247 107.347 28.1498V33.0008H105.394V22.6925H108.151L112.628 30.4131H112.678C112.607 29.0735 112.572 28.1263 112.572 27.5717V22.6925H114.539V33.0008Z" fill="white"/>
<path d="M121.435 33.0008H119.263V29.0594L115.844 22.6925H118.213L120.349 26.9371L122.499 22.6925H124.854L121.435 28.9889V33.0008Z" fill="white"/>
</svg>
