<svg width="157" height="38" viewBox="0 0 157 38" fill="none" xmlns="http://www.w3.org/2000/svg">
<path d="M33.16 7.69486L22.7132 18.1196C22.1725 18.6591 22.1721 19.5347 22.7124 20.0747L33.0669 30.4246C35.541 27.279 37.0167 23.3117 37.0167 19C37.0167 14.7427 35.578 10.8212 33.16 7.69486Z" fill="#8AB32C"/>
<path d="M31.2975 5.62705L18.8004 18.1205C18.2609 18.6598 18.2605 19.534 18.7995 20.0738L31.1866 32.4781C30.6597 32.9735 30.1038 33.4384 29.5216 33.8699L15.9419 20.0624C15.4142 19.526 15.4129 18.6662 15.9388 18.1281L29.5779 4.1721C30.1805 4.6223 30.7548 5.10833 31.2975 5.62705Z" fill="#8AB32C"/>
<path d="M27.0461 35.4185L14.9921 23.3448V37.1666C16.1305 37.3855 17.306 37.5001 18.5083 37.5001C21.5878 37.5001 24.4916 36.7483 27.0461 35.4185Z" fill="#8AB32C"/>
<path d="M12.2271 36.4075V1.59258C11.4872 1.85939 10.7691 2.17199 10.0764 2.52696L10.0764 35.4731C10.7691 35.8281 11.4872 36.1407 12.2271 36.4075Z" fill="#8AB32C"/>
<path d="M7.31142 33.732V4.26811C2.86826 7.64728 0 12.9888 0 19C0 25.0112 2.86826 30.3528 7.31142 33.732Z" fill="#8AB32C"/>
<path d="M14.9921 0.833435V14.7215L27.09 2.60452C24.5249 1.26036 21.6054 0.5 18.5083 0.5C17.306 0.5 16.1305 0.614588 14.9921 0.833435Z" fill="#8AB32C"/>
<path d="M52.3443 18.7962C50.5761 18.7962 49.2236 18.2616 48.2869 17.1923C47.3502 16.123 46.8818 14.5828 46.8818 12.5716C46.8818 12.5439 46.8818 12.5162 46.8818 12.4885C46.8818 11.2697 47.1118 10.1893 47.5719 9.24743C48.0319 8.30002 48.6888 7.57424 49.5424 7.07007C50.396 6.56035 51.3743 6.3055 52.4773 6.3055C52.5161 6.3055 52.5521 6.3055 52.5854 6.3055C53.7771 6.3055 54.9633 6.59082 56.1439 7.16148L55.3125 9.25574C54.1873 8.71832 53.2783 8.44961 52.5854 8.44961C51.6154 8.44961 50.8643 8.81528 50.3322 9.5466C49.8001 10.2724 49.534 11.2863 49.534 12.5883C49.534 15.2975 50.5512 16.6521 52.5854 16.6521C53.4335 16.6521 54.4672 16.4388 55.6866 16.0122V18.1729C54.6889 18.5885 53.5748 18.7962 52.3443 18.7962Z" fill="white"/>
<path d="M59.2451 17.1757C58.2474 16.0953 57.7486 14.544 57.7486 12.5218C57.7486 10.4995 58.2474 8.95656 59.2451 7.89281C60.2484 6.82352 61.6812 6.28887 63.5436 6.28887C65.4116 6.28887 66.8416 6.82629 67.8338 7.90112C68.826 8.97595 69.3221 10.5217 69.3221 12.5384C69.3221 14.5495 68.8232 16.0953 67.8255 17.1757C66.8278 18.256 65.3977 18.7962 63.5353 18.7962C61.6729 18.7962 60.2429 18.256 59.2451 17.1757ZM63.5519 8.43299C62.5265 8.43299 61.7533 8.77927 61.2323 9.47181C60.7112 10.1588 60.4507 11.181 60.4507 12.5384C60.4507 15.2698 61.4789 16.6355 63.5353 16.6355C65.5917 16.6355 66.6199 15.2698 66.6199 12.5384C66.6199 9.80146 65.5973 8.43299 63.5519 8.43299Z" fill="white"/>
<path d="M82.6249 18.63H79.3491L74.0612 9.43857H73.9864C74.0917 11.0176 74.1444 12.1755 74.1444 12.9124V18.63H71.8413V6.48002H75.0922L80.3718 15.5801H80.43C80.3468 14.0011 80.3053 12.8847 80.3053 12.2309V6.48002H82.6249V18.63Z" fill="white"/>
<path d="M84.9363 15.6715C85.7788 16.0427 86.48 16.3031 87.0398 16.4527C87.6052 16.5967 88.1456 16.6687 88.6611 16.6687C89.1822 16.6687 89.5923 16.5607 89.8916 16.3446C90.191 16.1285 90.3406 15.8072 90.3406 15.3806C90.3406 15.1424 90.2769 14.9346 90.1494 14.7573C90.0219 14.5745 89.8251 14.3944 89.5591 14.2171C89.2986 14.0343 88.7831 13.7628 88.0126 13.4027C87.2421 13.037 86.674 12.6963 86.3082 12.3805C85.4934 11.6769 85.086 10.796 85.086 9.73775C85.086 8.67954 85.449 7.84294 86.1751 7.22797C86.9068 6.61299 87.9156 6.3055 89.2016 6.3055C90.2824 6.3055 91.4852 6.59082 92.81 7.16148L91.9785 9.16432C91.3522 8.90946 90.8228 8.72663 90.3905 8.61582C89.9582 8.50502 89.5175 8.44961 89.0685 8.44961C88.6251 8.44961 88.2704 8.56319 88.0043 8.79035C87.7382 9.01196 87.6052 9.30837 87.6052 9.67957C87.6052 9.90673 87.6551 10.1062 87.7549 10.2779C87.8602 10.4441 88.0265 10.6076 88.2537 10.7683C88.4865 10.9234 89.0353 11.2059 89.9 11.6159C91.0307 12.1533 91.8067 12.6991 92.228 13.2531C92.6548 13.785 92.8682 14.4526 92.8682 15.2559C92.8682 16.3419 92.4718 17.2089 91.6792 17.8571C90.8866 18.4832 89.814 18.7962 88.4616 18.7962C87.1091 18.7962 85.934 18.5525 84.9363 18.0649V15.6715Z" fill="white"/>
<path d="M104.965 6.48002V14.3418C104.965 14.3584 104.965 14.375 104.965 14.3916C104.965 15.7213 104.516 16.7879 103.619 17.5912C102.721 18.3946 101.521 18.7962 100.018 18.7962C99.9907 18.7962 99.9603 18.7962 99.927 18.7962C98.3639 18.7962 97.15 18.3946 96.2853 17.5912C95.4206 16.7879 94.9883 15.6936 94.9883 14.3085V6.48002H97.5574V13.9179C97.5574 14.8598 97.7486 15.5496 98.1311 15.9873C98.5136 16.4194 99.1288 16.6355 99.9769 16.6355C100.825 16.6355 101.44 16.4166 101.823 15.979C102.205 15.5413 102.396 14.8487 102.396 13.9013V6.48002H104.965Z" fill="white"/>
<path d="M110.519 16.5025H115.45V18.63H107.942V6.48002H110.519V16.5025Z" fill="white"/>
<path d="M125.56 8.62414H122.259V18.63H119.682V8.62414H116.381V6.48002H125.56V8.62414Z" fill="white"/>
<path d="M130.008 18.63H127.431V6.48002H130.008V18.63Z" fill="white"/>
<path d="M143.851 18.63H140.576L135.288 9.43857H135.213C135.318 11.0176 135.371 12.1755 135.371 12.9124V18.63H133.068V6.48002H136.319L141.598 15.5801H141.656C141.573 14.0011 141.532 12.8847 141.532 12.2309V6.48002H143.851V18.63Z" fill="white"/>
<path d="M156.356 11.8071V18.1065C154.937 18.5663 153.496 18.7962 152.033 18.7962C150.204 18.7962 148.801 18.2588 147.826 17.184C146.861 16.1036 146.379 14.5689 146.379 12.5799C146.379 10.591 146.939 9.04797 148.058 7.95098C149.184 6.85399 150.741 6.3055 152.731 6.3055C153.978 6.3055 155.181 6.55481 156.339 7.05344L155.483 9.11446C154.585 8.67123 153.662 8.44961 152.714 8.44961C151.6 8.44961 150.708 8.82636 150.037 9.57985C149.367 10.3278 149.031 11.3472 149.031 12.6381C149.031 13.9235 149.3 14.9152 149.838 15.6133C150.381 16.3058 151.168 16.6521 152.199 16.6521C152.72 16.6521 153.266 16.5967 153.837 16.4859V13.9512H151.534V11.8071H156.356Z" fill="white"/>
<path d="M49.9175 26.1399C49.6659 26.1399 49.449 26.2107 49.2668 26.3523C49.0875 26.494 48.9401 26.6891 48.8244 26.9377C48.7116 27.1834 48.6277 27.4652 48.5728 27.7832C48.5207 28.0982 48.4947 28.4307 48.4947 28.7804C48.4947 29.3239 48.554 29.7922 48.6726 30.1853C48.794 30.5784 48.9646 30.8819 49.1844 31.0958C49.4042 31.3068 49.663 31.4123 49.9609 31.4123C50.1402 31.4123 50.3094 31.3892 50.4684 31.343C50.6275 31.2967 50.7735 31.2404 50.9066 31.1739V31.7982C50.7678 31.8792 50.613 31.9384 50.4424 31.976C50.2718 32.0165 50.0853 32.0367 49.8828 32.0367C49.4519 32.0367 49.0789 31.9066 48.7637 31.6465C48.4484 31.3863 48.2055 31.0134 48.0349 30.5278C47.8643 30.0393 47.7789 29.4539 47.7789 28.7718C47.7789 28.3237 47.8209 27.9031 47.9048 27.51C47.9915 27.1169 48.1216 26.77 48.2952 26.4694C48.4716 26.1688 48.6928 25.9346 48.9589 25.767C49.2249 25.5964 49.5372 25.5111 49.8958 25.5111C50.1041 25.5111 50.3036 25.5386 50.4945 25.5935C50.6882 25.6456 50.8733 25.7222 51.0497 25.8233L50.8025 26.4087C50.6694 26.3249 50.5292 26.2598 50.3817 26.2136C50.2342 26.1644 50.0795 26.1399 49.9175 26.1399Z" fill="white"/>
<path d="M68.7291 28.7718C68.7291 29.2256 68.6929 29.6505 68.6206 30.0465C68.5483 30.4397 68.4341 30.7865 68.2779 31.0872C68.1247 31.3849 67.9222 31.6176 67.6706 31.7852C67.419 31.9529 67.1139 32.0367 66.7553 32.0367C66.3909 32.0367 66.0815 31.9514 65.827 31.7809C65.5725 31.6075 65.3672 31.3704 65.211 31.0698C65.0578 30.7692 64.945 30.4209 64.8727 30.0248C64.8033 29.6288 64.7686 29.2082 64.7686 28.7631C64.7686 28.0404 64.8423 27.4392 64.9898 26.9593C65.1402 26.4795 65.3629 26.1196 65.6578 25.8797C65.9528 25.6398 66.3186 25.5198 66.7553 25.5198C67.2296 25.5198 67.6113 25.6643 67.9005 25.9534C68.1897 26.2396 68.3994 26.6284 68.5295 27.1198C68.6626 27.6112 68.7291 28.1618 68.7291 28.7718ZM65.4843 28.7718C65.4843 29.347 65.532 29.8312 65.6275 30.2243C65.7258 30.6145 65.8689 30.9094 66.0569 31.1088C66.2449 31.3083 66.4748 31.408 66.7467 31.408C67.0243 31.408 67.2556 31.3112 67.4407 31.1175C67.6258 30.9209 67.7646 30.6275 67.8572 30.2373C67.9526 29.8442 68.0003 29.3557 68.0003 28.7718C68.0003 27.9017 67.8962 27.247 67.688 26.8076C67.4798 26.3682 67.1689 26.1485 66.7553 26.1485C66.4719 26.1485 66.2362 26.2483 66.0482 26.4477C65.8603 26.6443 65.7186 26.9377 65.6231 27.3279C65.5306 27.7152 65.4843 28.1965 65.4843 28.7718Z" fill="white"/>
<path d="M85.068 31.95L83.5281 26.5648H83.4933C83.5049 26.7584 83.5136 26.9333 83.5194 27.0894C83.5281 27.2426 83.5338 27.3756 83.5367 27.4883C83.5396 27.6011 83.5411 27.6936 83.5411 27.7658V31.95H82.886V25.6109H83.8621L85.376 30.8834H85.402L86.9203 25.6109H87.9093V31.95H87.2326V27.7832C87.2326 27.7051 87.2341 27.6083 87.237 27.4927C87.2398 27.377 87.2442 27.2426 87.25 27.0894C87.2586 26.9333 87.2659 26.7584 87.2717 26.5648H87.2413L85.7013 31.95H85.068Z" fill="white"/>
<path d="M103.398 25.6109C104.02 25.6109 104.478 25.7612 104.773 26.0618C105.071 26.3624 105.22 26.8307 105.22 27.4666C105.22 27.7933 105.181 28.0809 105.103 28.3295C105.028 28.5752 104.913 28.7819 104.76 28.9495C104.61 29.1172 104.419 29.2444 104.188 29.3311C103.959 29.4149 103.69 29.4568 103.381 29.4568H102.951V31.95H102.262V25.6109H103.398ZM103.372 26.2179H102.951V28.8455H103.32C103.6 28.8455 103.827 28.7992 104.001 28.7067C104.177 28.6142 104.306 28.4668 104.387 28.2645C104.471 28.0621 104.513 27.7991 104.513 27.4753C104.513 27.0273 104.42 26.7064 104.235 26.5127C104.05 26.3162 103.762 26.2179 103.372 26.2179Z" fill="white"/>
<path d="M121.75 31.95L121.273 29.9121H119.767L119.29 31.95H118.553L120.084 25.6109H120.921L122.483 31.95H121.75ZM121.142 29.2747L120.657 27.1241C120.636 27.0172 120.616 26.9131 120.596 26.8119C120.579 26.7079 120.561 26.6081 120.544 26.5127C120.529 26.4145 120.515 26.3191 120.5 26.2266C120.492 26.3191 120.48 26.4145 120.466 26.5127C120.451 26.611 120.434 26.7108 120.414 26.8119C120.393 26.9102 120.372 27.0114 120.349 27.1154L119.876 29.2747H121.142Z" fill="white"/>
<path d="M139.889 31.95H139.052L136.839 26.7035H136.805C136.816 26.8567 136.825 27.0056 136.831 27.1501C136.839 27.2918 136.845 27.4291 136.848 27.562C136.851 27.695 136.852 27.8251 136.852 27.9523V31.95H136.197V25.6109H137.03L139.247 30.7793H139.273C139.264 30.6088 139.256 30.4483 139.247 30.298C139.241 30.1477 139.237 30.0075 139.234 29.8774C139.231 29.7445 139.23 29.6231 139.23 29.5132V25.6109H139.889V31.95Z" fill="white"/>
<path d="M155.3 28.6547L156.276 25.6109H157L155.638 29.4829V31.95H154.948V29.5002L153.59 25.6109H154.311L155.3 28.6547Z" fill="white"/>
</svg>
