<svg width="100" height="24" viewBox="0 0 100 24" fill="none" xmlns="http://www.w3.org/2000/svg">
<path d="M21.1209 4.79595L14.4669 11.4389C14.1226 11.7827 14.1223 12.3406 14.4664 12.6847L21.0616 19.28C22.6375 17.2755 23.5774 14.7475 23.5774 11.9999C23.5774 9.28701 22.661 6.78813 21.1209 4.79595Z" fill="#8AB32C"/>
<path d="M19.9346 3.47828L11.9747 11.4395C11.6311 11.7831 11.6308 12.3402 11.9742 12.6841L19.864 20.5885C19.5284 20.9042 19.1743 21.2004 18.8035 21.4754L10.154 12.6769C9.81794 12.3351 9.81708 11.7872 10.1521 11.4443L18.8393 2.55115C19.2232 2.83802 19.5889 3.14774 19.9346 3.47828Z" fill="#8AB32C"/>
<path d="M17.2267 22.4622L9.54907 14.7685V23.5762C10.2742 23.7156 11.0229 23.7887 11.7887 23.7887C13.7501 23.7887 15.5997 23.3096 17.2267 22.4622Z" fill="#8AB32C"/>
<path d="M7.78794 23.0924V0.907407C7.31664 1.07742 6.85929 1.27662 6.41806 1.50282L6.41806 22.497C6.85929 22.7232 7.31664 22.9224 7.78794 23.0924Z" fill="#8AB32C"/>
<path d="M4.65694 21.3875V2.61233C1.82691 4.76563 0 8.16943 0 11.9999C0 15.8304 1.82691 19.2342 4.65694 21.3875Z" fill="#8AB32C"/>
<path d="M9.54907 0.423656V9.27352L17.2547 1.55224C15.6209 0.695706 13.7614 0.211182 11.7887 0.211182C11.0229 0.211182 10.2742 0.2842 9.54907 0.423656Z" fill="#8AB32C"/>
<path d="M33.3402 11.8701C32.2139 11.8701 31.3525 11.5294 30.7558 10.848C30.1592 10.1666 29.8609 9.18513 29.8609 7.90357C29.8609 7.88592 29.8609 7.86827 29.8609 7.85061C29.8609 7.07391 30.0074 6.38547 30.3004 5.78529C30.5934 5.18158 31.0118 4.71908 31.5555 4.39781C32.0992 4.07301 32.7223 3.91061 33.4249 3.91061C33.4496 3.91061 33.4725 3.91061 33.4937 3.91061C34.2528 3.91061 35.0083 4.09243 35.7603 4.45606L35.2307 5.79058C34.514 5.44813 33.935 5.2769 33.4937 5.2769C32.8759 5.2769 32.3975 5.50991 32.0586 5.97593C31.7197 6.43842 31.5502 7.0845 31.5502 7.91416C31.5502 9.64056 32.198 10.5038 33.4937 10.5038C34.0339 10.5038 34.6923 10.3678 35.469 10.096V11.4729C34.8335 11.7377 34.1239 11.8701 33.3402 11.8701Z" fill="white"/>
<path d="M37.7356 10.8374C37.1001 10.1489 36.7824 9.16042 36.7824 7.8718C36.7824 6.58317 37.1001 5.59994 37.7356 4.92209C38.3746 4.24071 39.2872 3.90002 40.4735 3.90002C41.6632 3.90002 42.5741 4.24247 43.2061 4.92738C43.838 5.61229 44.154 6.5973 44.154 7.88239C44.154 9.16395 43.8362 10.1489 43.2008 10.8374C42.5653 11.5258 41.6544 11.8701 40.4682 11.8701C39.2819 11.8701 38.3711 11.5258 37.7356 10.8374ZM40.4788 5.26631C39.8256 5.26631 39.3331 5.48696 39.0013 5.92827C38.6694 6.36605 38.5035 7.01742 38.5035 7.88239C38.5035 9.62291 39.1584 10.4932 40.4682 10.4932C41.778 10.4932 42.4329 9.62291 42.4329 7.88239C42.4329 6.13833 41.7815 5.26631 40.4788 5.26631Z" fill="white"/>
<path d="M52.6271 11.7641H50.5406L47.1725 5.90709H47.1249C47.192 6.91327 47.2255 7.65114 47.2255 8.12069V11.7641H45.7586V4.02182H47.8292L51.192 9.82062H51.229C51.1761 8.81443 51.1496 8.10304 51.1496 7.68645V4.02182H52.6271V11.7641Z" fill="white"/>
<path d="M54.0993 9.87887C54.636 10.1154 55.0826 10.2813 55.4391 10.3767C55.7992 10.4685 56.1435 10.5144 56.4718 10.5144C56.8037 10.5144 57.0649 10.4455 57.2556 10.3078C57.4462 10.1701 57.5415 9.96536 57.5415 9.69352C57.5415 9.54171 57.5009 9.40932 57.4197 9.29634C57.3385 9.17984 57.2132 9.06509 57.0437 8.95212C56.8778 8.83561 56.5495 8.66262 56.0587 8.43314C55.568 8.20013 55.2061 7.98301 54.9731 7.78177C54.4541 7.3334 54.1946 6.77205 54.1946 6.09773C54.1946 5.42341 54.4259 4.89031 54.8884 4.49843C55.3544 4.10655 55.997 3.91061 56.816 3.91061C57.5045 3.91061 58.2706 4.09243 59.1144 4.45606L58.5848 5.73233C58.1858 5.56993 57.8487 5.45342 57.5733 5.38281C57.2979 5.3122 57.0173 5.2769 56.7313 5.2769C56.4489 5.2769 56.2229 5.34927 56.0534 5.49402C55.884 5.63524 55.7992 5.82412 55.7992 6.06066C55.7992 6.20541 55.831 6.33251 55.8946 6.44195C55.9616 6.54787 56.0676 6.65202 56.2123 6.7544C56.3606 6.85325 56.7101 7.03331 57.2609 7.29456C57.9811 7.63702 58.4753 7.98477 58.7437 8.33782C59.0155 8.67674 59.1514 9.10216 59.1514 9.61408C59.1514 10.3061 58.899 10.8586 58.3941 11.2716C57.8893 11.6706 57.2061 11.8701 56.3447 11.8701C55.4833 11.8701 54.7348 11.7147 54.0993 11.404V9.87887Z" fill="white"/>
<path d="M66.8567 4.02182V9.03156C66.8567 9.04215 66.8567 9.05274 66.8567 9.06333C66.8567 9.91064 66.5707 10.5903 65.9988 11.1022C65.4268 11.6141 64.6625 11.8701 63.7057 11.8701C63.6881 11.8701 63.6687 11.8701 63.6475 11.8701C62.6519 11.8701 61.8787 11.6141 61.328 11.1022C60.7772 10.5903 60.5018 9.89299 60.5018 9.01037V4.02182H62.1382V8.76147C62.1382 9.36165 62.26 9.8012 62.5036 10.0801C62.7472 10.3555 63.1391 10.4932 63.6793 10.4932C64.2194 10.4932 64.6113 10.3537 64.8549 10.0748C65.0985 9.7959 65.2203 9.35459 65.2203 8.75088V4.02182H66.8567Z" fill="white"/>
<path d="M70.3942 10.4084H73.5346V11.7641H68.7525V4.02182H70.3942V10.4084Z" fill="white"/>
<path d="M79.9741 5.38811H77.8717V11.7641H76.2301V5.38811H74.1277V4.02182H79.9741V5.38811Z" fill="white"/>
<path d="M82.8074 11.7641H81.1657V4.02182H82.8074V11.7641Z" fill="white"/>
<path d="M91.6247 11.7641H89.5382L86.1701 5.90709H86.1225C86.1895 6.91327 86.2231 7.65114 86.2231 8.12069V11.7641H84.7562V4.02182H86.8268L90.1896 9.82062H90.2266C90.1737 8.81443 90.1472 8.10304 90.1472 7.68645V4.02182H91.6247V11.7641Z" fill="white"/>
<path d="M99.5894 7.41636V11.4305C98.6856 11.7235 97.7677 11.8701 96.8357 11.8701C95.6706 11.8701 94.7774 11.5276 94.156 10.8427C93.5417 10.1542 93.2346 9.1763 93.2346 7.90887C93.2346 6.64143 93.5912 5.65819 94.3043 4.95916C95.021 4.26012 96.0131 3.91061 97.2805 3.91061C98.0749 3.91061 98.841 4.06948 99.5788 4.38722L99.0334 5.70056C98.4615 5.41812 97.8736 5.2769 97.2699 5.2769C96.5603 5.2769 95.9919 5.51697 95.5647 5.99712C95.1375 6.47373 94.9239 7.12334 94.9239 7.94594C94.9239 8.765 95.0952 9.39696 95.4376 9.8418C95.7836 10.2831 96.2849 10.5038 96.9416 10.5038C97.2735 10.5038 97.6212 10.4685 97.9848 10.3978V8.78266H96.5179V7.41636H99.5894Z" fill="white"/>
<path d="M31.7945 16.5496C31.6342 16.5496 31.4961 16.5947 31.38 16.685C31.2658 16.7753 31.1719 16.8996 31.0982 17.058C31.0264 17.2146 30.9729 17.3942 30.9379 17.5968C30.9048 17.7976 30.8882 18.0094 30.8882 18.2323C30.8882 18.5786 30.926 18.877 31.0015 19.1275C31.0789 19.378 31.1875 19.5714 31.3275 19.7077C31.4675 19.8422 31.6324 19.9094 31.8221 19.9094C31.9363 19.9094 32.0441 19.8947 32.1454 19.8652C32.2467 19.8357 32.3397 19.7998 32.4244 19.7574V20.1553C32.336 20.2069 32.2375 20.2446 32.1288 20.2686C32.0201 20.2944 31.9013 20.3073 31.7724 20.3073C31.4979 20.3073 31.2603 20.2244 31.0595 20.0586C30.8587 19.8928 30.704 19.6552 30.5953 19.3457C30.4867 19.0345 30.4323 18.6615 30.4323 18.2267C30.4323 17.9412 30.459 17.6732 30.5124 17.4227C30.5677 17.1722 30.6506 16.9512 30.7611 16.7596C30.8735 16.568 31.0144 16.4188 31.1838 16.312C31.3533 16.2033 31.5522 16.149 31.7806 16.149C31.9133 16.149 32.0404 16.1665 32.1619 16.2015C32.2854 16.2346 32.4032 16.2834 32.5156 16.3479L32.3581 16.7209C32.2734 16.6675 32.184 16.6261 32.0901 16.5966C31.9962 16.5653 31.8976 16.5496 31.7945 16.5496Z" fill="white"/>
<path d="M43.7763 18.2267C43.7763 18.5159 43.7533 18.7867 43.7072 19.0391C43.6612 19.2896 43.5884 19.5106 43.4889 19.7022C43.3913 19.8919 43.2624 20.0402 43.1021 20.147C42.9419 20.2538 42.7475 20.3073 42.5191 20.3073C42.287 20.3073 42.0899 20.2529 41.9278 20.1443C41.7658 20.0337 41.635 19.8827 41.5355 19.6911C41.4379 19.4996 41.366 19.2776 41.32 19.0252C41.2758 18.7729 41.2537 18.5049 41.2537 18.2212C41.2537 17.7607 41.3007 17.3776 41.3946 17.0718C41.4904 16.7661 41.6322 16.5367 41.8201 16.3838C42.008 16.231 42.241 16.1545 42.5191 16.1545C42.8212 16.1545 43.0644 16.2466 43.2486 16.4308C43.4328 16.6132 43.5663 16.8609 43.6492 17.174C43.7339 17.4872 43.7763 17.8381 43.7763 18.2267ZM41.7096 18.2267C41.7096 18.5933 41.74 18.9018 41.8008 19.1523C41.8634 19.401 41.9546 19.5889 42.0743 19.716C42.194 19.8431 42.3405 19.9066 42.5136 19.9066C42.6904 19.9066 42.8378 19.8449 42.9557 19.7215C43.0736 19.5963 43.162 19.4093 43.2209 19.1606C43.2817 18.9101 43.3121 18.5988 43.3121 18.2267C43.3121 17.6723 43.2458 17.2551 43.1132 16.9751C42.9805 16.6951 42.7825 16.5551 42.5191 16.5551C42.3386 16.5551 42.1885 16.6187 42.0688 16.7458C41.949 16.871 41.8588 17.058 41.798 17.3067C41.739 17.5535 41.7096 17.8602 41.7096 18.2267Z" fill="white"/>
<path d="M54.1832 20.252L53.2023 16.8204H53.1802C53.1876 16.9438 53.1931 17.0552 53.1968 17.1547C53.2023 17.2523 53.206 17.3371 53.2079 17.4089C53.2097 17.4807 53.2106 17.5397 53.2106 17.5857V20.252H52.7934V16.2125H53.4151L54.3794 19.5723H54.3959L55.363 16.2125H55.993V20.252H55.5619V17.5968C55.5619 17.5471 55.5628 17.4853 55.5647 17.4117C55.5665 17.338 55.5693 17.2523 55.573 17.1547C55.5785 17.0552 55.5831 16.9438 55.5868 16.8204H55.5675L54.5866 20.252H54.1832Z" fill="white"/>
<path d="M65.8583 16.2125C66.2543 16.2125 66.5463 16.3083 66.7342 16.4999C66.9239 16.6915 67.0188 16.9899 67.0188 17.3951C67.0188 17.6032 66.9939 17.7865 66.9442 17.9449C66.8963 18.1015 66.8235 18.2332 66.7259 18.34C66.6301 18.4469 66.5085 18.5279 66.3612 18.5832C66.2157 18.6366 66.0444 18.6633 65.8473 18.6633H65.5737V20.252H65.1344V16.2125H65.8583ZM65.8417 16.5993H65.5737V18.2737H65.8086C65.9873 18.2737 66.1319 18.2442 66.2424 18.1853C66.3547 18.1264 66.4367 18.0324 66.4883 17.9035C66.5417 17.7745 66.5684 17.6069 66.5684 17.4006C66.5684 17.1151 66.5095 16.9106 66.3916 16.7872C66.2737 16.662 66.0904 16.5993 65.8417 16.5993Z" fill="white"/>
<path d="M77.5473 20.252L77.2433 18.9534H76.2846L75.9807 20.252H75.5109L76.4863 16.2125H77.0195L78.0142 20.252H77.5473ZM77.1604 18.5472L76.851 17.1768C76.8381 17.1087 76.8252 17.0423 76.8123 16.9779C76.8013 16.9116 76.7902 16.848 76.7792 16.7872C76.77 16.7246 76.7607 16.6638 76.7515 16.6049C76.746 16.6638 76.7386 16.7246 76.7294 16.7872C76.7202 16.8499 76.7092 16.9134 76.6963 16.9779C76.6834 17.0405 76.6696 17.105 76.6548 17.1713L76.3537 18.5472H77.1604Z" fill="white"/>
<path d="M89.1008 20.252H88.5676L87.1584 16.9088H87.1363C87.1437 17.0064 87.1492 17.1013 87.1529 17.1934C87.1584 17.2836 87.1621 17.3711 87.164 17.4559C87.1658 17.5406 87.1667 17.6235 87.1667 17.7045V20.252H86.7495V16.2125H87.28L88.6919 19.506H88.7085C88.7029 19.3973 88.6974 19.2951 88.6919 19.1993C88.6882 19.1035 88.6855 19.0142 88.6836 18.9313C88.6818 18.8466 88.6808 18.7692 88.6808 18.6992V16.2125H89.1008V20.252Z" fill="white"/>
<path d="M98.9165 18.1521L99.5381 16.2125H99.9995L99.132 18.6799V20.252H98.6927V18.6909L97.8279 16.2125H98.2865L98.9165 18.1521Z" fill="white"/>
</svg>
