<svg width="121" height="30" viewBox="0 0 121 30" fill="none" xmlns="http://www.w3.org/2000/svg">
<path d="M25.8452 6.35526L17.8604 14.3268C17.4471 14.7394 17.4469 15.4089 17.8598 15.8218L25.7741 23.7362C27.6651 21.3308 28.793 18.2971 28.793 15.0001C28.793 11.7446 27.6934 8.7459 25.8452 6.35526Z" fill="#F8F8FA"/>
<path d="M24.4217 4.77405L14.8697 14.3275C14.4574 14.7399 14.4571 15.4084 14.8691 15.8212L24.3369 25.3065C23.9342 25.6853 23.5093 26.0407 23.0643 26.3707L12.6849 15.8125C12.2816 15.4022 12.2806 14.7448 12.6825 14.3333L23.1073 3.66149C23.5679 4.00574 24.0068 4.3774 24.4217 4.77405Z" fill="#F8F8FA"/>
<path d="M21.1722 27.5549L11.9589 18.3224V28.8917C12.8291 29.059 13.7276 29.1466 14.6465 29.1466C17.0002 29.1466 19.2197 28.5718 21.1722 27.5549Z" fill="#F8F8FA"/>
<path d="M9.84557 28.3112V1.68899C9.28001 1.89301 8.73119 2.13205 8.20172 2.40349L8.20171 27.5967C8.73119 27.8681 9.28001 28.1071 9.84557 28.3112Z" fill="#F8F8FA"/>
<path d="M6.08835 26.2652V3.7349C2.6923 6.31888 0.5 10.4035 0.5 15.0001C0.5 19.5967 2.6923 23.6813 6.08835 26.2652Z" fill="#F8F8FA"/>
<path d="M11.9589 1.10849V11.7284L21.2057 2.46279C19.2451 1.43495 17.0137 0.853516 14.6465 0.853516C13.7276 0.853516 12.8291 0.941139 11.9589 1.10849Z" fill="#F8F8FA"/>
<path d="M40.5084 14.8442C39.1569 14.8442 38.1232 14.4354 37.4072 13.6177C36.6912 12.8001 36.3332 11.6223 36.3332 10.0844C36.3332 10.0632 36.3332 10.0421 36.3332 10.0209C36.3332 9.08883 36.5091 8.2627 36.8607 7.54248C37.2123 6.81802 37.7144 6.26303 38.3668 5.8775C39.0192 5.48773 39.767 5.29285 40.6101 5.29285C40.6397 5.29285 40.6673 5.29285 40.6927 5.29285C41.6035 5.29285 42.5102 5.51103 43.4126 5.9474L42.7771 7.54883C41.9171 7.13788 41.2223 6.93241 40.6927 6.93241C39.9513 6.93241 39.3772 7.21202 38.9705 7.77125C38.5638 8.32624 38.3604 9.10154 38.3604 10.0971C38.3604 12.1688 39.1379 13.2047 40.6927 13.2047C41.3409 13.2047 42.131 13.0416 43.0631 12.7153V14.3676C42.3005 14.6854 41.4489 14.8442 40.5084 14.8442Z" fill="#F8F8FA"/>
<path d="M45.7829 13.605C45.0204 12.7789 44.6391 11.5927 44.6391 10.0463C44.6391 8.49994 45.0204 7.32006 45.7829 6.50663C46.5498 5.68897 47.6449 5.28014 49.0684 5.28014C50.4961 5.28014 51.5892 5.69109 52.3475 6.51299C53.1059 7.33488 53.4851 8.51689 53.4851 10.059C53.4851 11.5969 53.1038 12.7789 52.3412 13.605C51.5786 14.4312 50.4856 14.8442 49.0621 14.8442C47.6386 14.8442 46.5455 14.4312 45.7829 13.605ZM49.0748 6.9197C48.291 6.9197 47.7 7.18448 47.3018 7.71406C46.9035 8.23939 46.7044 9.02104 46.7044 10.059C46.7044 12.1476 47.4903 13.192 49.0621 13.192C50.6338 13.192 51.4197 12.1476 51.4197 10.059C51.4197 7.96613 50.6381 6.9197 49.0748 6.9197Z" fill="#F8F8FA"/>
<path d="M63.6529 14.7171H61.149L57.1073 7.68864H57.0501C57.1306 8.89607 57.1709 9.78151 57.1709 10.345V14.7171H55.4106V5.4263H57.8953L61.9307 12.3849H61.9752C61.9116 11.1775 61.8799 10.3238 61.8799 9.82388V5.4263H63.6529V14.7171Z" fill="#F8F8FA"/>
<path d="M65.4195 12.4548C66.0635 12.7386 66.5994 12.9378 67.0273 13.0522C67.4594 13.1623 67.8725 13.2174 68.2665 13.2174C68.6647 13.2174 68.9783 13.1348 69.207 12.9695C69.4358 12.8043 69.5502 12.5586 69.5502 12.2324C69.5502 12.0502 69.5015 11.8913 69.404 11.7558C69.3066 11.616 69.1562 11.4783 68.9528 11.3427C68.7537 11.2029 68.3597 10.9953 67.7708 10.7199C67.1819 10.4403 66.7477 10.1798 66.4681 9.93827C65.8453 9.40022 65.5339 8.7266 65.5339 7.91741C65.5339 7.10823 65.8114 6.4685 66.3664 5.99824C66.9256 5.52798 67.6967 5.29285 68.6796 5.29285C69.5057 5.29285 70.425 5.51103 71.4376 5.9474L70.8021 7.47893C70.3234 7.28404 69.9188 7.14424 69.5883 7.0595C69.2579 6.97477 68.9211 6.93241 68.5779 6.93241C68.239 6.93241 67.9678 7.01926 67.7645 7.19296C67.5611 7.36242 67.4594 7.58908 67.4594 7.87293C67.4594 8.04663 67.4976 8.19915 67.5738 8.33048C67.6543 8.45758 67.7814 8.58256 67.9551 8.70542C68.1331 8.82404 68.5525 9.04011 69.2134 9.35362C70.0777 9.76457 70.6708 10.1819 70.9928 10.6055C71.319 11.0122 71.4821 11.5227 71.4821 12.1371C71.4821 12.9674 71.1792 13.6305 70.5733 14.1261C69.9675 14.6049 69.1477 14.8442 68.114 14.8442C67.0803 14.8442 66.1821 14.6578 65.4195 14.285V12.4548Z" fill="#F8F8FA"/>
<path d="M80.7284 5.4263V11.438C80.7284 11.4507 80.7284 11.4634 80.7284 11.4761C80.7284 12.4929 80.3853 13.3085 79.6989 13.9228C79.0126 14.5371 78.0954 14.8442 76.9473 14.8442C76.9261 14.8442 76.9028 14.8442 76.8774 14.8442C75.6827 14.8442 74.7548 14.5371 74.0939 13.9228C73.433 13.3085 73.1026 12.4717 73.1026 11.4126V5.4263H75.0662V11.1139C75.0662 11.8341 75.2124 12.3616 75.5047 12.6963C75.797 13.0267 76.2673 13.192 76.9155 13.192C77.5637 13.192 78.034 13.0246 78.3263 12.6899C78.6186 12.3552 78.7648 11.8257 78.7648 11.1012V5.4263H80.7284Z" fill="#F8F8FA"/>
<path d="M84.9735 13.0903H88.7419V14.7171H83.0035V5.4263H84.9735V13.0903Z" fill="#F8F8FA"/>
<path d="M96.4695 7.06586H93.9466V14.7171H91.9766V7.06586H89.4537V5.4263H96.4695V7.06586Z" fill="#F8F8FA"/>
<path d="M99.8693 14.7171H97.8993V5.4263H99.8693V14.7171Z" fill="#F8F8FA"/>
<path d="M110.45 14.7171H107.946L103.905 7.68864H103.847C103.928 8.89607 103.968 9.78151 103.968 10.345V14.7171H102.208V5.4263H104.693L108.728 12.3849H108.773C108.709 11.1775 108.677 10.3238 108.677 9.82388V5.4263H110.45V14.7171Z" fill="#F8F8FA"/>
<path d="M120.008 9.49978V14.3168C118.923 14.6684 117.822 14.8442 116.703 14.8442C115.305 14.8442 114.233 14.4333 113.488 13.6114C112.751 12.7853 112.382 11.6117 112.382 10.0908C112.382 8.56985 112.81 7.38996 113.666 6.55111C114.526 5.71227 115.716 5.29285 117.237 5.29285C118.19 5.29285 119.11 5.48349 119.995 5.86479L119.341 7.4408C118.654 7.10187 117.949 6.93241 117.225 6.93241C116.373 6.93241 115.691 7.2205 115.178 7.79667C114.666 8.36861 114.409 9.14814 114.409 10.1353C114.409 11.1182 114.615 11.8765 115.026 12.4103C115.441 12.9399 116.042 13.2047 116.83 13.2047C117.229 13.2047 117.646 13.1623 118.082 13.0776V11.1393H116.322V9.49978H120.008Z" fill="#F8F8FA"/>
<path d="M38.6536 20.4597C38.4612 20.4597 38.2955 20.5139 38.1562 20.6222C38.0192 20.7305 37.9064 20.8797 37.818 21.0698C37.7318 21.2577 37.6677 21.4732 37.6257 21.7163C37.5859 21.9573 37.566 22.2115 37.566 22.4789C37.566 22.8945 37.6114 23.2526 37.702 23.5532C37.7948 23.8538 37.9252 24.0859 38.0932 24.2495C38.2612 24.4108 38.459 24.4915 38.6867 24.4915C38.8238 24.4915 38.9531 24.4738 39.0746 24.4384C39.1962 24.4031 39.3078 24.36 39.4095 24.3091V24.7866C39.3034 24.8485 39.1852 24.8938 39.0547 24.9225C38.9243 24.9535 38.7818 24.9689 38.627 24.9689C38.2977 24.9689 38.0125 24.8695 37.7716 24.6705C37.5307 24.4716 37.345 24.1865 37.2146 23.8151C37.0842 23.4416 37.019 22.994 37.019 22.4723C37.019 22.1297 37.051 21.8081 37.1151 21.5075C37.1814 21.2069 37.2809 20.9416 37.4135 20.7117C37.5484 20.4818 37.7174 20.3028 37.9208 20.1746C38.1242 20.0442 38.3629 19.979 38.637 19.979C38.7961 19.979 38.9486 20 39.0945 20.042C39.2426 20.0818 39.3841 20.1403 39.5189 20.2177L39.3299 20.6653C39.2283 20.6012 39.1211 20.5515 39.0083 20.5161C38.8956 20.4785 38.7773 20.4597 38.6536 20.4597Z" fill="#F8F8FA"/>
<path d="M53.0318 22.4723C53.0318 22.8193 53.0042 23.1443 52.9489 23.4471C52.8937 23.7477 52.8063 24.0129 52.687 24.2428C52.5698 24.4705 52.4151 24.6484 52.2228 24.7766C52.0305 24.9048 51.7973 24.9689 51.5232 24.9689C51.2447 24.9689 51.0082 24.9037 50.8137 24.7733C50.6192 24.6407 50.4622 24.4594 50.3429 24.2296C50.2257 23.9997 50.1395 23.7333 50.0842 23.4305C50.0312 23.1277 50.0047 22.8061 50.0047 22.4657C50.0047 21.9131 50.061 21.4533 50.1738 21.0864C50.2887 20.7195 50.4589 20.4443 50.6844 20.2608C50.9098 20.0773 51.1894 19.9856 51.5232 19.9856C51.8857 19.9856 52.1775 20.0961 52.3985 20.3172C52.6196 20.536 52.7798 20.8333 52.8793 21.2091C52.981 21.5848 53.0318 22.0059 53.0318 22.4723ZM50.5517 22.4723C50.5517 22.9122 50.5882 23.2824 50.6612 23.583C50.7363 23.8814 50.8457 24.1069 50.9894 24.2594C51.1331 24.4119 51.3088 24.4882 51.5166 24.4882C51.7288 24.4882 51.9056 24.4141 52.0471 24.266C52.1885 24.1157 52.2946 23.8914 52.3654 23.593C52.4383 23.2924 52.4748 22.9188 52.4748 22.4723C52.4748 21.807 52.3952 21.3063 52.2361 20.9703C52.0769 20.6344 51.8393 20.4664 51.5232 20.4664C51.3066 20.4664 51.1264 20.5426 50.9828 20.6951C50.8391 20.8454 50.7308 21.0698 50.6578 21.3682C50.5871 21.6644 50.5517 22.0324 50.5517 22.4723Z" fill="#F8F8FA"/>
<path d="M65.5202 24.9026L64.3431 20.7847H64.3166C64.3255 20.9328 64.3321 21.0665 64.3365 21.1859C64.3431 21.303 64.3476 21.4047 64.3498 21.4909C64.352 21.5771 64.3531 21.6478 64.3531 21.7031V24.9026H63.8524V20.0552H64.5984L65.7556 24.087H65.7755L66.9359 20.0552H67.6919V24.9026H67.1747V21.7163C67.1747 21.6567 67.1758 21.5826 67.178 21.4942C67.1802 21.4058 67.1835 21.303 67.1879 21.1859C67.1945 21.0665 67.2001 20.9328 67.2045 20.7847H67.1813L66.0042 24.9026H65.5202Z" fill="#F8F8FA"/>
<path d="M79.5304 20.0552C80.0056 20.0552 80.356 20.1702 80.5814 20.4001C80.8091 20.6299 80.9229 20.988 80.9229 21.4743C80.9229 21.7241 80.8931 21.944 80.8334 22.1341C80.7759 22.322 80.6886 22.48 80.5715 22.6082C80.4566 22.7364 80.3107 22.8337 80.1338 22.9C79.9592 22.9641 79.7536 22.9962 79.5171 22.9962H79.1889V24.9026H78.6617V20.0552H79.5304ZM79.5105 20.5194H79.1889V22.5287H79.4707C79.6851 22.5287 79.8586 22.4933 79.9913 22.4226C80.1261 22.3518 80.2245 22.2391 80.2863 22.0844C80.3504 21.9296 80.3825 21.7285 80.3825 21.4809C80.3825 21.1383 80.3118 20.893 80.1703 20.7449C80.0288 20.5946 79.8089 20.5194 79.5105 20.5194Z" fill="#F8F8FA"/>
<path d="M93.5572 24.9026L93.1925 23.3443H92.042L91.6773 24.9026H91.1136L92.284 20.0552H92.9239L94.1175 24.9026H93.5572ZM93.093 22.8569L92.7217 21.2124C92.7062 21.1306 92.6907 21.051 92.6752 20.9737C92.662 20.8941 92.6487 20.8178 92.6355 20.7449C92.6244 20.6697 92.6134 20.5968 92.6023 20.526C92.5957 20.5968 92.5868 20.6697 92.5758 20.7449C92.5647 20.82 92.5515 20.8963 92.536 20.9737C92.5205 21.0488 92.5039 21.1262 92.4863 21.2057L92.1249 22.8569H93.093Z" fill="#F8F8FA"/>
<path d="M107.422 24.9026H106.782L105.091 20.8908H105.064C105.073 21.0079 105.08 21.1217 105.084 21.2323C105.091 21.3406 105.095 21.4456 105.097 21.5473C105.1 21.6489 105.101 21.7484 105.101 21.8457V24.9026H104.6V20.0552H105.237L106.931 24.0074H106.951C106.944 23.877 106.937 23.7543 106.931 23.6394C106.926 23.5244 106.923 23.4172 106.921 23.3178C106.919 23.2161 106.918 23.1233 106.918 23.0393V20.0552H107.422V24.9026Z" fill="#F8F8FA"/>
<path d="M119.2 22.3828L119.946 20.0552H120.5L119.459 23.0161V24.9026H118.932V23.0293L117.894 20.0552H118.444L119.2 22.3828Z" fill="#F8F8FA"/>
</svg>
