<svg width="20" height="21" viewBox="0 0 20 21" fill="none" xmlns="http://www.w3.org/2000/svg">
<path fill-rule="evenodd" clip-rule="evenodd" d="M1.66663 5.81197C1.66663 4.55678 2.68416 3.53925 3.93935 3.53925H16.0606C17.3158 3.53925 18.3333 4.55678 18.3333 5.81197V14.9029C18.3333 16.1581 17.3158 17.1756 16.0606 17.1756H3.93935C2.68416 17.1756 1.66663 16.1581 1.66663 14.9029V5.81197ZM3.93935 5.0544C3.52096 5.0544 3.18178 5.39358 3.18178 5.81197V6.89819L9.99996 10.9891L16.8181 6.89819V5.81197C16.8181 5.39358 16.479 5.0544 16.0606 5.0544H3.93935ZM16.8181 8.66515L10.7795 12.2883C10.2997 12.5762 9.70024 12.5762 9.22042 12.2883L3.18178 8.66515V14.9029C3.18178 15.3213 3.52096 15.6605 3.93935 15.6605H16.0606C16.479 15.6605 16.8181 15.3213 16.8181 14.9029V8.66515Z" fill="#F8F8FA"/>
</svg>
