<svg width="45" height="17" viewBox="0 0 45 17" fill="none" xmlns="http://www.w3.org/2000/svg">
<path d="M4.51318 0.307373H7.55461V12.6245H4.51318V0.307373ZM8.76739 7.99139C8.76739 4.94053 10.6624 3.1119 13.5048 3.1119C16.3473 3.1119 18.2422 4.94053 18.2422 7.99139C18.2422 11.0423 16.4136 12.8898 13.5048 12.8898C10.596 12.8898 8.76739 11.1086 8.76739 7.99139ZM15.2292 7.99139C15.2292 6.31436 14.5755 5.32899 13.5332 5.32899C12.491 5.32899 11.8467 6.27646 11.8467 7.99139C11.8467 9.70632 12.491 10.6443 13.5332 10.6443C14.5755 10.6443 15.2482 9.70632 15.2482 8.00087L15.2292 7.99139ZM19.455 13.2594H22.3922C22.5259 13.5755 22.7595 13.8394 23.0572 14.0104C23.3549 14.1815 23.7003 14.2505 24.0408 14.2068C25.2062 14.2068 25.8126 13.5815 25.8126 12.653V10.9475H25.8221C25.5711 11.4786 25.1652 11.9211 24.6579 12.2171C24.1506 12.5131 23.5655 12.6485 22.9797 12.6056C20.7531 12.6056 19.275 10.9096 19.275 7.99139C19.275 5.07317 20.6867 3.25402 23.0649 3.25402C23.6657 3.2219 24.2618 3.37681 24.7708 3.69753C25.2799 4.01825 25.677 4.48896 25.9074 5.04475H25.8221V3.32982H28.8351V12.5582C28.8351 14.7848 26.8643 16.1776 23.965 16.1776C21.331 16.1681 19.6445 14.9648 19.474 13.2688L19.455 13.2594ZM25.8221 7.99139C25.8221 6.50386 25.1399 5.56586 24.0598 5.56586C22.9797 5.56586 22.3164 6.51333 22.3164 7.99139C22.3164 9.46946 22.9702 10.3411 24.0598 10.3411C25.1494 10.3411 25.8221 9.53578 25.8221 7.99139ZM30.0384 7.99139C30.0384 4.94053 31.9334 3.1119 34.7758 3.1119C37.6183 3.1119 39.5133 4.94053 39.5133 7.99139C39.5133 11.0423 37.6751 12.8898 34.7758 12.8898C31.8765 12.8898 30.0574 11.1086 30.0574 7.99139H30.0384ZM36.5003 7.99139C36.5003 6.31436 35.837 5.32899 34.8043 5.32899C33.7715 5.32899 33.1177 6.27646 33.1177 7.99139C33.1177 9.70632 33.762 10.6443 34.8043 10.6443C35.8465 10.6443 36.5192 9.70632 36.5192 8.00087L36.5003 7.99139Z" fill="#39393A"/>
</svg>
