<svg width="96" height="36" viewBox="0 0 96 36" fill="none" xmlns="http://www.w3.org/2000/svg">
<path d="M20.5 5.5H25.2911V24.903H20.5V5.5ZM27.2016 17.6045C27.2016 12.7985 30.1867 9.91791 34.6643 9.91791C39.142 9.91791 42.1271 12.7985 42.1271 17.6045C42.1271 22.4104 39.2465 25.3209 34.6643 25.3209C30.0822 25.3209 27.2016 22.5149 27.2016 17.6045ZM37.3808 17.6045C37.3808 14.9627 36.3509 13.4104 34.7091 13.4104C33.0673 13.4104 32.0524 14.903 32.0524 17.6045C32.0524 20.306 33.0673 21.7836 34.7091 21.7836C36.3509 21.7836 37.4106 20.306 37.4106 17.6194L37.3808 17.6045ZM44.0376 25.903H48.6645C48.8751 26.401 49.243 26.8167 49.7119 27.0861C50.1809 27.3557 50.7251 27.4643 51.2615 27.3955C53.0974 27.3955 54.0526 26.4104 54.0526 24.9478V22.2612H54.0675C53.6721 23.0978 53.0327 23.7949 52.2336 24.2612C51.4344 24.7275 50.5127 24.9407 49.5899 24.8731C46.0824 24.8731 43.754 22.2015 43.754 17.6045C43.754 13.0075 45.9779 10.1418 49.7242 10.1418C50.6706 10.0912 51.6096 10.3352 52.4114 10.8404C53.2133 11.3457 53.8389 12.0872 54.2018 12.9627H54.0675V10.2612H58.8138V24.7985C58.8138 28.306 55.7093 30.5 51.1421 30.5C46.9928 30.4851 44.3361 28.5896 44.0674 25.9179L44.0376 25.903ZM54.0675 17.6045C54.0675 15.2612 52.9929 13.7836 51.2914 13.7836C49.5898 13.7836 48.5451 15.2761 48.5451 17.6045C48.5451 19.9328 49.5749 21.306 51.2914 21.306C53.0078 21.306 54.0675 20.0373 54.0675 17.6045ZM60.7094 17.6045C60.7094 12.7985 63.6945 9.91791 68.1721 9.91791C72.6498 9.91791 75.6349 12.7985 75.6349 17.6045C75.6349 22.4104 72.7393 25.3209 68.1721 25.3209C63.6049 25.3209 60.7392 22.5149 60.7392 17.6045H60.7094ZM70.8886 17.6045C70.8886 14.9627 69.8438 13.4104 68.2169 13.4104C66.59 13.4104 65.5602 14.903 65.5602 17.6045C65.5602 20.306 66.5751 21.7836 68.2169 21.7836C69.8587 21.7836 70.9184 20.306 70.9184 17.6194L70.8886 17.6045Z" fill="#39393A"/>
</svg>
