<svg width="46" height="17" viewBox="0 0 46 17" fill="none" xmlns="http://www.w3.org/2000/svg">
<path fill-rule="evenodd" clip-rule="evenodd" d="M10.4276 0.147882L10.2738 0.198561L10.1057 0.32827L9.93763 0.457979L9.82407 0.624606L9.71048 0.791232L9.65882 0.966322L9.60717 1.14138L9.60738 1.35019L9.60755 1.55896L9.64324 1.68825L9.67889 1.81752L9.82465 2.0319L9.97042 2.24628L10.2572 2.46393L10.5439 2.68158L10.5927 2.75166L10.6415 2.82175L10.5999 2.96133L10.5584 3.10095L10.4719 3.2417L10.3854 3.38245L10.041 3.72025L9.6966 4.05808L9.77591 4.20416L9.85521 4.35025L9.89962 4.41142L9.94406 4.47256L10.2457 4.36208L10.5472 4.25157L10.7723 4.13401L10.9973 4.01645L11.2802 3.78872L11.5629 3.56098L11.7497 3.33411L11.9366 3.10721L12.0508 2.90078L12.1649 2.69434L12.2365 2.45815L12.3079 2.22195L12.3294 1.94048L12.3509 1.65901L12.2925 1.36814L12.234 1.07728L12.1263 0.873633L12.0186 0.670021L11.8564 0.502397L11.6942 0.334773L11.4664 0.227462L11.2386 0.120185L10.91 0.108694L10.5814 0.097168L10.4276 0.147882ZM40.4641 0.218104L40.0936 0.263209L39.8444 0.318981L39.5953 0.374752L39.3946 0.495757L39.1938 0.616727L38.9799 0.829044L38.7659 1.04139L38.6272 1.30969L38.4886 1.57795L38.4067 1.90288L38.3248 2.2278L38.2892 2.57654L38.2537 2.92527V3.28172V3.63816L37.8862 3.64793L37.5187 3.6577L37.5096 4.56085L37.5005 5.46399H37.8771H38.2537V10.9345V16.405H39.3305H40.4073V10.9345V5.46399H40.5788H40.7503L40.7412 4.56085L40.732 3.6577L40.3948 3.64779L40.0575 3.63792L40.072 3.20052L40.0865 2.76315L40.1571 2.60833L40.2278 2.4535L40.3478 2.3388L40.4678 2.22409L40.6844 2.14513L40.9011 2.06617L40.9273 2.019L40.9536 1.97183L41.1249 1.13532L41.2962 0.298819L41.2607 0.232175L41.2253 0.165532L41.03 0.169248L40.8346 0.172998L40.4641 0.218104ZM44.3269 0.218104L43.9564 0.263209L43.7073 0.318981L43.4581 0.374752L43.2574 0.495757L43.0566 0.616727L42.8427 0.829044L42.6288 1.04139L42.4965 1.30016L42.3643 1.55896L42.3103 1.73099L42.2564 1.90301L42.2016 2.19546L42.1468 2.48791L42.1265 3.0642L42.1061 3.6405H41.9643H41.8225L41.7815 3.68178L41.7405 3.72307V4.59353V5.46399H41.9285H42.1165V10.9345V16.405H43.1933H44.2701V10.9345V5.46399H44.6296H44.9891L44.98 4.56085L44.9709 3.6577L44.4456 3.64817L43.9203 3.63867L43.9348 3.2009L43.9493 2.76315L44.02 2.60833L44.0906 2.4535L44.2106 2.3388L44.3306 2.22409L44.5473 2.14513L44.7639 2.06617L44.7901 2.019L44.8164 1.97183L44.9873 1.13443L45.1581 0.296996L45.1231 0.231281L45.0882 0.165532L44.8928 0.169248L44.6974 0.172998L44.3269 0.218104ZM1.47932 0.346161L1.40709 0.423574L1.04583 8.26805L0.68457 16.1125L0.684809 16.2587L0.685049 16.405H1.77895H2.87285L2.87295 16.1211L2.87302 15.8373L2.94166 11.6939L3.01027 7.55055L3.01847 7.5425L3.02668 7.53442L3.81634 11.0666L4.60596 14.5987L4.89865 14.6086L5.1913 14.6185L5.22279 14.471L5.25427 14.3234L6.03771 10.8342L6.82115 7.34498L6.82819 7.46244L6.8352 7.57994L6.87088 10.7108L6.90657 13.8418L6.92862 15.1234L6.95067 16.405H8.07134H9.192L9.17689 16.2243L9.16178 16.0437L8.81762 8.25084L8.47341 0.457979L8.41277 0.371965L8.35216 0.285951L7.75756 0.276146L7.16299 0.26634L7.08382 0.285986L7.00465 0.305597L6.96058 0.416211L6.91649 0.526791L5.8956 4.56085L4.87472 8.5949L4.8566 8.59476L4.83845 8.59466L3.88857 4.4919L2.93869 0.389168L2.86779 0.328958L2.79689 0.268749H2.17426H1.55159L1.47932 0.346161ZM33.4621 3.53807L33.3025 3.56518L33.1032 3.62316L32.9038 3.68116L32.6444 3.81662L32.385 3.95204L32.1554 4.14261L31.9259 4.33318L31.7575 4.56312L31.5891 4.79308L31.4724 5.03392L31.3556 5.27476L31.2851 5.50607L31.2145 5.73738L31.1773 6.02215L31.14 6.30693L31.1517 9.88511L31.1633 13.4633L31.2232 13.8165L31.2831 14.1697L31.3505 14.4358L31.4179 14.7019L31.5379 14.9569L31.658 15.2119L31.8096 15.4258L31.9613 15.6397L32.1915 15.852L32.4218 16.0644L32.697 16.1999L32.9722 16.3355L33.1773 16.3903L33.3824 16.4452L33.7755 16.4637L34.1686 16.4821L34.4242 16.442L34.6798 16.4019L34.9142 16.3199L35.1487 16.2378L35.3424 16.1236L35.536 16.0093L35.8437 15.6997L36.1513 15.39L36.3097 15.0804L36.468 14.7707L36.5407 14.5461L36.6134 14.3215L36.6705 14.0644L36.7277 13.8073L36.74 10.1604L36.7523 6.51336L36.6979 6.1349L36.6436 5.75644L36.5313 5.42415L36.419 5.09186L36.2681 4.82443L36.1172 4.55699L35.8608 4.29317L35.6044 4.02935L35.3651 3.88853L35.1258 3.7477L34.8645 3.66007L34.6032 3.57244L34.3688 3.53835L34.1345 3.50425L33.8781 3.50759L33.6217 3.51096L33.4621 3.53807ZM19.9821 3.59047L19.7428 3.64201L19.4188 3.80148L19.0948 3.96095L18.8192 4.23939L18.5437 4.51784L18.3869 4.82749L18.2302 5.13714L18.1573 5.36177L18.0844 5.58637L18.0272 5.84345L17.97 6.1005L17.9574 9.85071L17.9448 13.6009L17.9826 13.8934L18.0204 14.1858L18.0895 14.4611L18.1586 14.7363L18.2875 15.0115L18.4163 15.2868L18.5815 15.5062L18.7467 15.7256L18.9371 15.8793L19.1275 16.0329L19.401 16.1665L19.6745 16.3L19.8796 16.3537L20.0847 16.4075L20.4342 16.4392L20.7838 16.471L21.0633 16.4389L21.3429 16.4068L21.5342 16.3512L21.7255 16.2956L21.9638 16.17L22.202 16.0445L22.4166 15.8424L22.6313 15.6403L22.7897 15.4005L22.9481 15.1607L23.0509 14.9144L23.1537 14.6681L23.218 14.4441L23.2822 14.2202L23.3355 13.9106L23.3888 13.6009L23.4079 12.5773L23.4271 11.5538H22.3647H21.3023L21.2917 12.7322L21.2811 13.9106L21.1818 14.127L21.0825 14.3435L20.9842 14.4268L20.8859 14.51L20.7673 14.543L20.6487 14.5759L20.5319 14.5435L20.4151 14.511L20.3048 14.3846L20.1944 14.2581L20.1225 14.1016L20.0505 13.945V9.93672V5.92847L20.1454 5.76597L20.2403 5.60344L20.3877 5.51653L20.5351 5.42959L20.6859 5.42972L20.8367 5.42983L20.9465 5.49719L21.0562 5.56453L21.1217 5.69489L21.1873 5.82525L21.2257 6.00757L21.264 6.18988V7.32358V8.45728H22.3238H23.3835L23.3834 7.39931L23.3833 6.34134L23.3456 6.03168L23.3079 5.72203L23.2424 5.46399L23.1768 5.20595L23.0265 4.8963L22.8761 4.58665L22.715 4.39776L22.5538 4.20888L22.3615 4.05371L22.1691 3.89854L21.9302 3.78827L21.6913 3.678L21.4862 3.62078L21.2811 3.56357L20.7513 3.55125L20.2214 3.53893L19.9821 3.59047ZM13.9123 3.6791L13.5854 3.70828L13.2475 3.79453L12.9096 3.88082L12.6172 4.02656L12.3248 4.17227L12.0814 4.41387L11.8379 4.65546L11.7131 4.90569L11.5882 5.15593L11.519 5.4492L11.4498 5.74244L11.4612 7.57295L11.4725 9.40343L11.5483 9.67868L11.624 9.95392L11.7489 10.2101L11.8737 10.4663L12.103 10.6918L12.3323 10.9173L11.8082 13.5837L11.284 16.2501L11.2653 16.328L11.2465 16.4059L12.3324 16.3968L13.4182 16.3878L13.8781 13.8332L14.338 11.2785H14.451H14.5639V13.8418V16.405H15.6407H16.7175V10.0941V3.78311L16.6274 3.71182L16.5374 3.6405L15.3883 3.64521L14.2392 3.64996L13.9123 3.6791ZM24.7589 3.67618L24.6815 3.70745L24.6478 3.79663L24.6141 3.88581V10.1454V16.405H25.6909H26.7677V13.3429V10.2808H27.2634H27.7591V13.3429V16.405H28.8359H29.9127V10.0941V3.78311L29.8207 3.71027L29.7286 3.6374L28.8092 3.64755L27.8897 3.6577L27.8244 3.73893L27.7591 3.82016V6.15592V8.49168H27.2634H26.7677V6.13741V3.78311L26.6777 3.71182L26.5876 3.6405L25.7119 3.64266L24.8363 3.64487L24.7589 3.67618ZM14.5639 7.48171V9.70582L14.3408 9.68487L14.1177 9.66388L13.9722 9.5991L13.8267 9.53431L13.7347 9.42432L13.6427 9.31429L13.6047 9.17226L13.5667 9.03024L13.5811 7.46217L13.5955 5.89406L13.6483 5.70968L13.7012 5.5253L13.7874 5.43857L13.8736 5.35183L14.0393 5.30703L14.205 5.2622L14.3844 5.25986L14.5639 5.25756V7.48171ZM34.2078 5.50149L34.3234 5.5734L34.4227 5.71856L34.5219 5.86372L34.5767 6.05364L34.6316 6.24355L34.6223 10.0771L34.613 13.9106L34.534 14.0863L34.455 14.262L34.3289 14.3843L34.2028 14.5065L34.0763 14.5407L33.9498 14.575L33.8277 14.5473L33.7056 14.5195L33.6232 14.4652L33.5408 14.4109L33.4502 14.2913L33.3595 14.1717L33.3029 14.0067L33.2462 13.8418L33.2359 10.1087L33.2255 6.37574L33.2631 6.15561L33.3007 5.93552L33.364 5.81156L33.4274 5.68763L33.5245 5.59497L33.6217 5.50236L33.7072 5.46816L33.7926 5.43396L33.9424 5.43175L34.0922 5.42959L34.2078 5.50149Z" fill="#39393A"/>
</svg>
