<svg width="96" height="36" viewBox="0 0 96 36" fill="none" xmlns="http://www.w3.org/2000/svg">
<path fill-rule="evenodd" clip-rule="evenodd" d="M21.3121 0.60833L20.9835 0.716586L20.6245 0.993659L20.2655 1.27073L20.0229 1.62666L19.7803 1.98259L19.6699 2.3566L19.5596 2.73054L19.56 3.17657L19.5604 3.62254L19.6366 3.89873L19.7128 4.17484L20.0242 4.63278L20.3355 5.09072L20.948 5.55565L21.5605 6.02057L21.6647 6.17028L21.7689 6.31998L21.6801 6.61815L21.5914 6.91638L21.4067 7.21705L21.222 7.51771L20.4863 8.23927L19.7506 8.96091L19.92 9.27297L20.0894 9.58502L20.1843 9.71569L20.2792 9.84629L20.9235 9.6103L21.5677 9.37424L22.0484 9.12311L22.5292 8.87198L23.1333 8.38553L23.7373 7.89907L24.1364 7.41445L24.5354 6.92976L24.7794 6.4888L25.0233 6.04783L25.176 5.5433L25.3287 5.03876L25.3747 4.43751L25.4206 3.83626L25.2957 3.21494L25.1709 2.59362L24.9408 2.15861L24.7107 1.72367L24.3641 1.36561L24.0176 1.00755L23.531 0.778322L23.0445 0.549167L22.3426 0.52462L21.6407 0.5L21.3121 0.60833ZM85.4731 0.758331L84.6817 0.854681L84.1495 0.973815L83.6174 1.09295L83.1885 1.35143L82.7596 1.60983L82.3027 2.06336L81.8457 2.51697L81.5495 3.09007L81.2533 3.6631L81.0783 4.35718L80.9034 5.05126L80.8275 5.79619L80.7515 6.54113V7.30252V8.06392L79.9665 8.08479L79.1815 8.10566L79.1621 10.0349L79.1426 11.9641H79.947H80.7515V23.6496V35.3352H83.0517H85.3519V23.6496V11.9641H85.7182H86.0845L86.065 10.0349L86.0456 8.10566L85.3251 8.0845L84.6046 8.06341L84.6356 7.12908L84.6666 6.19482L84.8175 5.8641L84.9683 5.53338L85.2247 5.28835L85.481 5.04332L85.9438 4.87465L86.4066 4.70598L86.4627 4.60522L86.5188 4.50446L86.8847 2.7176L87.2506 0.930748L87.1749 0.78839L87.0993 0.646032L86.6819 0.65397L86.2646 0.661981L85.4731 0.758331ZM93.7246 0.758331L92.9331 0.854681L92.4009 0.973815L91.8688 1.09295L91.4399 1.35143L91.011 1.60983L90.5541 2.06336L90.0971 2.51697L89.8147 3.06971L89.5322 3.62254L89.417 3.99001L89.3017 4.35747L89.1847 4.98217L89.0677 5.60687L89.0242 6.83789L88.9806 8.06892H88.6778H88.3749L88.2873 8.15711L88.1997 8.2453V10.1047V11.9641H88.6013H89.0029V23.6496V35.3352H91.3031H93.6033V23.6496V11.9641H94.3712H95.1391L95.1197 10.0349L95.1002 8.10566L93.9781 8.08531L92.8559 8.06502L92.887 7.12989L92.918 6.19482L93.0689 5.8641L93.2198 5.53338L93.4761 5.28835L93.7324 5.04332L94.1953 4.87465L94.6581 4.70598L94.7141 4.60522L94.7701 4.50446L95.1351 2.71569L95.5 0.926852L95.4253 0.786479L95.3507 0.646032L94.9333 0.65397L94.516 0.661981L93.7246 0.758331ZM2.19767 1.03188L2.04338 1.19724L1.27169 17.9538L0.5 34.7105L0.500511 35.0228L0.501022 35.3352H2.83771H5.17439L5.17461 34.7288L5.17476 34.1225L5.32138 25.2719L5.46794 16.4212L5.48546 16.404L5.50299 16.3867L7.18978 23.9318L8.8765 31.4767L9.50171 31.4979L10.1268 31.519L10.1941 31.2039L10.2614 30.8888L11.9349 23.4354L13.6084 15.9821L13.6234 16.233L13.6384 16.484L13.7146 23.1719L13.7908 29.8599L13.8379 32.5975L13.885 35.3352H16.2789H18.6728L18.6405 34.9493L18.6082 34.5635L17.873 17.9171L17.1378 1.27073L17.0082 1.087L16.8788 0.903261L15.6086 0.882315L14.3386 0.86137L14.1695 0.903334L14.0003 0.945226L13.9062 1.18151L13.812 1.41772L11.6313 10.0349L9.45059 18.652L9.41189 18.6517L9.37312 18.6515L7.34407 9.8876L5.31503 1.12374L5.16358 0.995128L5.01214 0.866514H3.68212H2.35204L2.19767 1.03188ZM70.5162 7.85012L70.1752 7.90804L69.7495 8.03188L69.3237 8.15579L68.7695 8.44513L68.2153 8.7344L67.725 9.14149L67.2347 9.54857L66.875 10.0397L66.5153 10.531L66.2659 11.0454L66.0166 11.5599L65.8658 12.054L65.7151 12.5481L65.6356 13.1564L65.556 13.7647L65.5809 21.4081L65.6057 29.0514L65.7337 29.8059L65.8617 30.5603L66.0056 31.1288L66.1496 31.6972L66.4059 32.2419L66.6624 32.7865L66.9863 33.2434L67.3102 33.7004L67.8021 34.154L68.2941 34.6076L68.8819 34.8972L69.4697 35.1867L69.9078 35.3038L70.346 35.421L71.1857 35.4605L72.0255 35.5L72.5714 35.4143L73.1173 35.3287L73.6181 35.1534L74.1189 34.9781L74.5326 34.734L74.9463 34.49L75.6035 33.8285L76.2607 33.1671L76.5989 32.5056L76.9372 31.8442L77.0924 31.3644L77.2477 30.8846L77.3697 30.3354L77.4918 29.7864L77.5182 21.996L77.5445 14.2057L77.4283 13.3972L77.3121 12.5888L77.0723 11.879L76.8325 11.1692L76.5101 10.5979L76.1877 10.0266L75.64 9.4631L75.0923 8.89954L74.5812 8.59873L74.07 8.29792L73.5119 8.11073L72.9538 7.92355L72.4531 7.85071L71.9524 7.77788L71.4048 7.78501L70.8571 7.79221L70.5162 7.85012ZM41.7216 7.96206L41.2104 8.07215L40.5183 8.4128L39.8262 8.75344L39.2375 9.34822L38.6489 9.94301L38.3141 10.6045L37.9794 11.2659L37.8236 11.7457L37.6677 12.2255L37.5456 12.7747L37.4234 13.3237L37.3965 21.3346L37.3697 29.3454L37.4504 29.9701L37.5312 30.5948L37.6787 31.1828L37.8263 31.7707L38.1016 32.3587L38.3769 32.9466L38.7298 33.4153L39.0826 33.8839L39.4893 34.2122L39.896 34.5405L40.4802 34.8257L41.0644 35.1109L41.5025 35.2257L41.9406 35.3405L42.6873 35.4083L43.4339 35.4761L44.0312 35.4075L44.6284 35.3391L45.037 35.2203L45.4457 35.1015L45.9546 34.8333L46.4634 34.5651L46.9219 34.1334L47.3805 33.7017L47.7188 33.1894L48.0572 32.6772L48.2769 32.1511L48.4964 31.625L48.6337 31.1466L48.7709 30.6683L48.8848 30.0068L48.9985 29.3454L49.0394 27.159L49.0804 24.9725H46.811H44.5417L44.519 27.4897L44.4964 30.0068L44.2843 30.4693L44.0721 30.9317L43.8621 31.1095L43.6521 31.2873L43.3988 31.3577L43.1455 31.4281L42.8959 31.3588L42.6464 31.2894L42.4108 31.0194L42.1751 30.7493L42.0214 30.4148L41.8676 30.0803V21.5183V12.9563L42.0704 12.6091L42.2731 12.262L42.5879 12.0763L42.9028 11.8906L43.2249 11.8909L43.5471 11.8911L43.7815 12.035L44.0158 12.1788L44.1558 12.4573L44.2959 12.7358L44.3779 13.1252L44.4599 13.5147V15.9364V18.3581H46.7235H48.9872L48.987 16.0981L48.9868 13.8382L48.9062 13.1767L48.8258 12.5153L48.6858 11.9641L48.5457 11.4129L48.2246 10.7514L47.9034 10.09L47.5592 9.68652L47.215 9.28304L46.8041 8.95158L46.3932 8.62012L45.8829 8.38457L45.3727 8.14902L44.9345 8.0268L44.4964 7.90458L43.3646 7.87827L42.2327 7.85196L41.7216 7.96206ZM28.7558 8.15138L28.0575 8.2137L27.3357 8.39795L26.6138 8.58227L25.9893 8.89359L25.3648 9.20484L24.8447 9.72091L24.3247 10.237L24.058 10.7715L23.7913 11.306L23.6435 11.9325L23.4957 12.5589L23.5199 16.469L23.5442 20.3791L23.706 20.9671L23.8678 21.555L24.1345 22.1023L24.4011 22.6496L24.891 23.1312L25.3807 23.6129L24.2612 29.3087L23.1415 35.0044L23.1014 35.1708L23.0613 35.3372L25.3809 35.3178L27.7004 35.2984L28.6827 29.8415L29.6651 24.3846H29.9064H30.1477V29.8599V35.3352H32.4479H34.748V21.8544V8.37355L34.5556 8.22127L34.3632 8.06892L31.9086 8.07899L29.454 8.08913L28.7558 8.15138ZM51.9252 8.14513L51.7599 8.21194L51.6879 8.40243L51.616 8.59293V21.964V35.3352H53.9161H56.2163V28.7942V22.2532H57.2751H58.3339V28.7942V35.3352H60.6341H62.9343V21.8544V8.37355L62.7377 8.21796L62.5411 8.0623L60.577 8.08398L58.613 8.10566L58.4734 8.27918L58.3339 8.4527V13.4421V18.4316H57.2751H56.2163V13.4026V8.37355L56.0239 8.22127L55.8315 8.06892L53.9611 8.07355L52.0906 8.07825L51.9252 8.14513ZM30.1477 16.2741V21.0251L29.6712 20.9803L29.1945 20.9355L28.8838 20.7971L28.5729 20.6587L28.3764 20.4238L28.18 20.1887L28.0988 19.8853L28.0177 19.582L28.0483 16.2324L28.0791 12.8828L28.192 12.4889L28.3049 12.0951L28.4889 11.9098L28.673 11.7245L29.027 11.6288L29.381 11.5331L29.7643 11.5281L30.1477 11.5231V16.2741ZM72.1091 12.0442L72.3561 12.1978L72.5681 12.5079L72.78 12.8179L72.8972 13.2236L73.0143 13.6293L72.9945 21.8181L72.9747 30.0068L72.8059 30.3822L72.6371 30.7576L72.3678 31.0187L72.0985 31.2798L71.8282 31.353L71.558 31.4262L71.2972 31.3669L71.0364 31.3077L70.8603 31.1916L70.6843 31.0755L70.4907 30.8201L70.2971 30.5647L70.1761 30.2123L70.055 29.8599L70.033 21.8858L70.0109 13.9117L70.0912 13.4415L70.1714 12.9713L70.3067 12.7065L70.4421 12.4418L70.6496 12.2439L70.8571 12.046L71.0397 11.973L71.2222 11.8999L71.5422 11.8952L71.8622 11.8906L72.1091 12.0442Z" fill="#39393A"/>
</svg>
