<svg width="14" height="15" viewBox="0 0 14 15" fill="none" xmlns="http://www.w3.org/2000/svg">
<path d="M11.6904 9.62238L10.0407 9.43403C9.64457 9.38857 9.2549 9.52496 8.97563 9.80422L7.78063 10.9992C5.94266 10.064 4.43591 8.56376 3.50069 6.71929L4.70219 5.5178C4.98146 5.23853 5.11784 4.84885 5.07238 4.45268L4.88404 2.81605C4.8061 2.16009 4.25406 1.6665 3.59162 1.6665H2.46805C1.73416 1.6665 1.12367 2.277 1.16913 3.01088C1.51335 8.55726 5.94915 12.9866 11.489 13.3308C12.2229 13.3762 12.8334 12.7658 12.8334 12.0319V10.9083C12.8399 10.2524 12.3463 9.70031 11.6904 9.62238Z" fill="#868688"/>
</svg>
