<svg width="14" height="14" viewBox="0 0 14 14" fill="none" xmlns="http://www.w3.org/2000/svg">
<path d="M11.375 2.1875H2.625C2.39294 2.1875 2.17038 2.27969 2.00628 2.44378C1.84219 2.60788 1.75 2.83044 1.75 3.0625V6.27648C1.75 11.177 5.89641 12.8029 6.72656 13.0791C6.90387 13.1394 7.09613 13.1394 7.27344 13.0791C8.10469 12.8029 12.25 11.177 12.25 6.27648V3.0625C12.25 2.83044 12.1578 2.60788 11.9937 2.44378C11.8296 2.27969 11.6071 2.1875 11.375 2.1875ZM9.49703 5.99703L6.43453 9.05953C6.3939 9.10021 6.34565 9.13248 6.29254 9.1545C6.23943 9.17651 6.18249 9.18784 6.125 9.18784C6.06751 9.18784 6.01058 9.17651 5.95746 9.1545C5.90435 9.13248 5.8561 9.10021 5.81547 9.05953L4.50297 7.74703C4.42088 7.66494 4.37476 7.5536 4.37476 7.4375C4.37476 7.3214 4.42088 7.21006 4.50297 7.12797C4.58506 7.04588 4.6964 6.99976 4.8125 6.99976C4.9286 6.99976 5.03994 7.04588 5.12203 7.12797L6.125 8.13094L8.87797 5.37797C8.91862 5.33732 8.96687 5.30508 9.01998 5.28308C9.07309 5.26108 9.13002 5.24976 9.1875 5.24976C9.24499 5.24976 9.30191 5.26108 9.35502 5.28308C9.40813 5.30508 9.45638 5.33732 9.49703 5.37797C9.53768 5.41862 9.56992 5.46687 9.59192 5.51998C9.61392 5.57309 9.62524 5.63001 9.62524 5.6875C9.62524 5.74499 9.61392 5.80191 9.59192 5.85502C9.56992 5.90813 9.53768 5.95638 9.49703 5.99703Z" fill="#1E429F"/>
</svg>
