<svg width="14" height="14" viewBox="0 0 14 14" fill="none" xmlns="http://www.w3.org/2000/svg">
<path d="M13.9999 7.43755C13.9999 7.55358 13.9538 7.66486 13.8717 7.74691C13.7897 7.82896 13.6784 7.87505 13.5624 7.87505H12.6874V8.75005C12.6874 8.86608 12.6413 8.97736 12.5592 9.05941C12.4772 9.14146 12.3659 9.18755 12.2499 9.18755C12.1338 9.18755 12.0225 9.14146 11.9405 9.05941C11.8584 8.97736 11.8124 8.86608 11.8124 8.75005V7.87505H10.9374C10.8213 7.87505 10.71 7.82896 10.628 7.74691C10.5459 7.66486 10.4999 7.55358 10.4999 7.43755C10.4999 7.32152 10.5459 7.21024 10.628 7.12819C10.71 7.04614 10.8213 7.00005 10.9374 7.00005H11.8124V6.12505C11.8124 6.00902 11.8584 5.89774 11.9405 5.81569C12.0225 5.73364 12.1338 5.68755 12.2499 5.68755C12.3659 5.68755 12.4772 5.73364 12.5592 5.81569C12.6413 5.89774 12.6874 6.00902 12.6874 6.12505V7.00005H13.5624C13.6784 7.00005 13.7897 7.04614 13.8717 7.12819C13.9538 7.21024 13.9999 7.32152 13.9999 7.43755ZM7.87486 8.62318C8.56069 8.19601 9.08874 7.55711 9.37913 6.80311C9.66951 6.04911 9.70642 5.22105 9.48428 4.44421C9.26214 3.66736 8.79303 2.984 8.14793 2.49751C7.50282 2.01102 6.71682 1.74786 5.90884 1.74786C5.10086 1.74786 4.31486 2.01102 3.66975 2.49751C3.02465 2.984 2.55554 3.66736 2.3334 4.44421C2.11126 5.22105 2.14817 6.04911 2.43855 6.80311C2.72894 7.55711 3.25699 8.19601 3.94282 8.62318C2.81353 8.99286 1.79743 9.68357 0.980403 10.6559C0.926914 10.7195 0.892635 10.797 0.881577 10.8793C0.87052 10.9617 0.88314 11.0455 0.917962 11.1209C0.952785 11.1964 1.00837 11.2603 1.07821 11.3053C1.14806 11.3503 1.22927 11.3745 1.31236 11.3751H10.4999C10.5832 11.3751 10.6649 11.3514 10.7352 11.3066C10.8055 11.2619 10.8616 11.198 10.8968 11.1224C10.9321 11.0468 10.945 10.9628 10.934 10.8801C10.9231 10.7975 10.8888 10.7197 10.8351 10.6559C10.0175 9.68357 9.00142 8.99286 7.87486 8.62318Z" fill="#1E429F"/>
</svg>
