<svg width="14" height="14" viewBox="0 0 14 14" fill="none" xmlns="http://www.w3.org/2000/svg">
<path d="M6.99989 4.81248C6.56725 4.81248 6.14432 4.94077 5.78458 5.18114C5.42485 5.4215 5.14447 5.76314 4.97891 6.16286C4.81334 6.56257 4.77002 7.0024 4.85442 7.42674C4.93883 7.85107 5.14717 8.24084 5.4531 8.54677C5.75902 8.8527 6.1488 9.06104 6.57313 9.14544C6.99747 9.22985 7.4373 9.18653 7.83701 9.02096C8.23673 8.8554 8.57837 8.57502 8.81873 8.21529C9.0591 7.85555 9.18739 7.43262 9.18739 6.99998C9.18739 6.41982 8.95693 5.86342 8.54669 5.45318C8.13645 5.04294 7.58005 4.81248 6.99989 4.81248ZM6.99989 8.31248C6.7403 8.31248 6.48655 8.2355 6.27071 8.09128C6.05487 7.94706 5.88664 7.74208 5.7873 7.50225C5.68796 7.26242 5.66197 6.99852 5.71261 6.74392C5.76326 6.48932 5.88826 6.25545 6.07182 6.0719C6.25537 5.88834 6.48924 5.76334 6.74384 5.7127C6.99844 5.66205 7.26234 5.68804 7.50216 5.78738C7.74199 5.88672 7.94698 6.05495 8.0912 6.27079C8.23542 6.48663 8.31239 6.74039 8.31239 6.99998C8.31239 7.34807 8.17411 7.68191 7.92797 7.92805C7.68183 8.1742 7.34799 8.31248 6.99989 8.31248ZM11.0309 8.70294C10.8429 9.14732 10.5828 9.55755 10.2609 9.91701C10.183 10.0013 10.075 10.0516 9.96031 10.0571C9.84561 10.0625 9.73337 10.0226 9.64781 9.94605C9.56226 9.86946 9.51024 9.76231 9.50298 9.64771C9.49573 9.53311 9.53382 9.42026 9.60903 9.33349C10.1835 8.69209 10.5011 7.8613 10.5011 7.00025C10.5011 6.1392 10.1835 5.30841 9.60903 4.66701C9.56964 4.62438 9.53912 4.57435 9.51926 4.51982C9.49939 4.46528 9.49058 4.40734 9.49332 4.34937C9.49607 4.2914 9.51032 4.23455 9.53525 4.18214C9.56018 4.12972 9.59529 4.0828 9.63854 4.04409C9.68178 4.00538 9.7323 3.97566 9.78714 3.95666C9.84198 3.93767 9.90005 3.92977 9.95798 3.93344C10.0159 3.93711 10.0725 3.95226 10.1245 3.97802C10.1765 4.00379 10.2229 4.03964 10.2609 4.08349C10.8133 4.70165 11.1789 5.4639 11.3153 6.28165C11.4516 7.09939 11.353 7.93903 11.0309 8.70294ZM3.77333 5.63771C3.51519 6.24877 3.43602 6.92061 3.54505 7.57494C3.65407 8.22926 3.94679 8.83914 4.38911 9.33349C4.46433 9.42026 4.50242 9.53311 4.49516 9.64771C4.48791 9.76231 4.43589 9.86946 4.35033 9.94605C4.26477 10.0226 4.15254 10.0625 4.03784 10.0571C3.92314 10.0516 3.81517 10.0013 3.73724 9.91701C3.01896 9.11526 2.62178 8.07668 2.62178 7.00025C2.62178 5.92382 3.01896 4.88523 3.73724 4.08349C3.81462 3.99683 3.92325 3.94446 4.03925 3.93789C4.15524 3.93133 4.26909 3.97111 4.35575 4.04849C4.44241 4.12587 4.49479 4.23451 4.50135 4.3505C4.50791 4.4665 4.46813 4.58035 4.39075 4.66701C4.13263 4.95416 3.92398 5.28219 3.77333 5.63771ZM13.5624 6.99998C13.565 8.71811 12.8914 10.3683 11.6872 11.5937C11.6473 11.6363 11.5994 11.6705 11.5461 11.6943C11.4929 11.7181 11.4354 11.731 11.3771 11.7323C11.3188 11.7335 11.2608 11.7231 11.2066 11.7016C11.1523 11.6802 11.1029 11.6481 11.0613 11.6072C11.0197 11.5664 10.9866 11.5176 10.9641 11.4638C10.9416 11.41 10.93 11.3523 10.9301 11.2939C10.9303 11.2356 10.942 11.1779 10.9648 11.1242C10.9876 11.0705 11.0208 11.0219 11.0626 10.9812C12.1054 9.91885 12.6896 8.48968 12.6896 7.00107C12.6896 5.51246 12.1054 4.08329 11.0626 3.02091C10.9811 2.9381 10.9358 2.82629 10.9368 2.71009C10.9377 2.59389 10.9847 2.48282 11.0675 2.4013C11.1504 2.31979 11.2622 2.27452 11.3784 2.27544C11.4946 2.27636 11.6056 2.32341 11.6872 2.40623C12.8914 3.63168 13.565 5.28184 13.5624 6.99998ZM2.93716 10.9801C2.97745 11.0211 3.00926 11.0697 3.03079 11.123C3.05232 11.1763 3.06314 11.2333 3.06264 11.2908C3.06213 11.3483 3.0503 11.4051 3.02783 11.458C3.00537 11.5109 2.9727 11.5589 2.93169 11.5992C2.89068 11.6395 2.84214 11.6713 2.78884 11.6928C2.73553 11.7144 2.67851 11.7252 2.62103 11.7247C2.56354 11.7242 2.50672 11.7123 2.4538 11.6899C2.40089 11.6674 2.35292 11.6347 2.31263 11.5937C1.10851 10.3679 0.433838 8.71828 0.433838 6.99998C0.433838 5.28167 1.10851 3.63206 2.31263 2.40623C2.35247 2.36363 2.40043 2.32943 2.45368 2.30564C2.50693 2.28184 2.5644 2.26894 2.62271 2.26768C2.68102 2.26642 2.739 2.27684 2.79323 2.29831C2.84746 2.31978 2.89684 2.35189 2.93848 2.39272C2.98012 2.43356 3.01318 2.48232 3.03571 2.53612C3.05823 2.58992 3.06977 2.64768 3.06965 2.706C3.06952 2.76433 3.05774 2.82204 3.03499 2.87575C3.01223 2.92945 2.97897 2.97806 2.93716 3.01873C1.89441 4.08111 1.31023 5.51027 1.31023 6.99888C1.31023 8.4875 1.89441 9.91666 2.93716 10.979V10.9801Z" fill="#1E429F"/>
</svg>
