<svg width="14" height="14" viewBox="0 0 14 14" fill="none" xmlns="http://www.w3.org/2000/svg">
<path d="M12.25 6.5625V7.4375C12.25 7.55353 12.2039 7.66481 12.1219 7.74686C12.0398 7.82891 11.9285 7.875 11.8125 7.875H2.1875C2.07147 7.875 1.96019 7.82891 1.87814 7.74686C1.79609 7.66481 1.75 7.55353 1.75 7.4375V6.5625C1.75 6.44647 1.79609 6.33519 1.87814 6.25314C1.96019 6.17109 2.07147 6.125 2.1875 6.125H11.8125C11.9285 6.125 12.0398 6.17109 12.1219 6.25314C12.2039 6.33519 12.25 6.44647 12.25 6.5625ZM11.8125 9.625H2.1875C2.07147 9.625 1.96019 9.67109 1.87814 9.75314C1.79609 9.83519 1.75 9.94647 1.75 10.0625V10.9375C1.75 11.0535 1.79609 11.1648 1.87814 11.2469C1.96019 11.3289 2.07147 11.375 2.1875 11.375H11.8125C11.9285 11.375 12.0398 11.3289 12.1219 11.2469C12.2039 11.1648 12.25 11.0535 12.25 10.9375V10.0625C12.25 9.94647 12.2039 9.83519 12.1219 9.75314C12.0398 9.67109 11.9285 9.625 11.8125 9.625ZM11.8125 2.625H2.1875C2.07147 2.625 1.96019 2.67109 1.87814 2.75314C1.79609 2.83519 1.75 2.94647 1.75 3.0625V3.9375C1.75 4.05353 1.79609 4.16481 1.87814 4.24686C1.96019 4.32891 2.07147 4.375 2.1875 4.375H11.8125C11.9285 4.375 12.0398 4.32891 12.1219 4.24686C12.2039 4.16481 12.25 4.05353 12.25 3.9375V3.0625C12.25 2.94647 12.2039 2.83519 12.1219 2.75314C12.0398 2.67109 11.9285 2.625 11.8125 2.625Z" fill="#1E429F"/>
</svg>
