<svg width="14" height="14" viewBox="0 0 14 14" fill="none" xmlns="http://www.w3.org/2000/svg">
<path d="M12.6876 9.1875H3.49243C3.63789 8.90094 3.78391 8.60617 3.92993 8.30648C4.74696 8.39672 5.71383 7.82523 6.81415 6.59914C6.84696 6.68992 6.8836 6.78344 6.92352 6.87805C7.27954 7.71203 7.73891 8.18727 8.29071 8.29172C8.85618 8.40109 9.41618 8.11508 9.99039 7.42656C10.3634 7.86789 11.129 8.3125 12.6876 8.3125C12.8036 8.3125 12.9149 8.26641 12.9969 8.18436C13.079 8.10231 13.1251 7.99103 13.1251 7.875C13.1251 7.75897 13.079 7.64769 12.9969 7.56564C12.9149 7.48359 12.8036 7.4375 12.6876 7.4375C11.0125 7.4375 10.5247 6.85836 10.5001 6.55047C10.4974 6.4487 10.4593 6.35104 10.3924 6.27432C10.3255 6.1976 10.2339 6.14662 10.1334 6.13017C10.033 6.11371 9.92991 6.13281 9.842 6.18418C9.7541 6.23554 9.68687 6.31596 9.65188 6.41156C8.98633 7.40961 8.59204 7.45828 8.44875 7.43203C7.99321 7.34617 7.56938 6.28742 7.42665 5.59945C7.40797 5.51257 7.36327 5.43343 7.29851 5.37257C7.23374 5.31171 7.15198 5.27202 7.0641 5.25878C6.97622 5.24554 6.88639 5.25938 6.80657 5.29845C6.72675 5.33752 6.66072 5.39997 6.61727 5.4775C5.53446 6.82391 4.80821 7.28219 4.35266 7.39922C4.81696 6.36672 5.16368 5.46055 5.38571 4.69766C5.75868 3.41578 5.78602 2.51945 5.46829 1.95781C5.30422 1.66469 4.96024 1.31523 4.27008 1.3125H4.25641C3.38141 1.31852 2.69235 2.14922 2.36313 3.59297C2.1668 4.45211 2.13454 5.40805 2.27399 6.21797C2.41344 7.02789 2.70383 7.61305 3.12438 7.96195C2.92094 8.38469 2.71258 8.79758 2.51024 9.18859H1.31258C1.19655 9.18859 1.08527 9.23469 1.00322 9.31673C0.921176 9.39878 0.875082 9.51006 0.875082 9.62609C0.875082 9.74213 0.921176 9.85341 1.00322 9.93545C1.08527 10.0175 1.19655 10.0636 1.31258 10.0636H2.04594C1.42688 11.212 0.945629 12.0127 0.937973 12.0258C0.906782 12.075 0.885754 12.13 0.876124 12.1876C0.866495 12.2451 0.868458 12.3039 0.881899 12.3607C0.895341 12.4174 0.919988 12.4709 0.954393 12.518C0.988798 12.565 1.03227 12.6048 1.08224 12.6348C1.13222 12.6648 1.1877 12.6846 1.24542 12.6929C1.30313 12.7012 1.36192 12.6978 1.41833 12.6831C1.47475 12.6683 1.52764 12.6424 1.5739 12.6069C1.62017 12.5714 1.65887 12.5271 1.68774 12.4764C1.69594 12.4622 2.30407 11.4488 3.03852 10.0636H12.6876C12.8036 10.0636 12.9149 10.0175 12.9969 9.93545C13.079 9.85341 13.1251 9.74213 13.1251 9.62609C13.1251 9.51006 13.079 9.39878 12.9969 9.31673C12.9149 9.23469 12.8036 9.18859 12.6876 9.18859V9.1875ZM10.5001 6.5625V6.55102C10.5004 6.55484 10.5004 6.55868 10.5001 6.5625Z" fill="#1E429F"/>
</svg>
