<svg width="14" height="14" viewBox="0 0 14 14" fill="none" xmlns="http://www.w3.org/2000/svg">
<path d="M8.99452 10.6986C9.03757 10.7646 9.06199 10.841 9.0652 10.9198C9.0684 10.9985 9.05029 11.0767 9.01275 11.146C8.97522 11.2153 8.91967 11.2731 8.85196 11.3135C8.78426 11.3538 8.70692 11.3751 8.62811 11.3751H0.559517C0.48071 11.3751 0.403369 11.3538 0.335665 11.3135C0.26796 11.2731 0.212407 11.2153 0.174875 11.146C0.137342 11.0767 0.119224 10.9985 0.122433 10.9198C0.125643 10.841 0.150062 10.7646 0.193111 10.6986C0.80895 9.75069 1.71479 9.02729 2.77545 8.63636C2.18909 8.246 1.74392 7.6773 1.50577 7.01436C1.26762 6.35142 1.24914 5.62944 1.45305 4.95518C1.65696 4.28093 2.07245 3.69019 2.63806 3.27033C3.20368 2.85047 3.8894 2.62378 4.59381 2.62378C5.29823 2.62378 5.98395 2.85047 6.54956 3.27033C7.11518 3.69019 7.53066 4.28093 7.73458 4.95518C7.93849 5.62944 7.92 6.35142 7.68185 7.01436C7.4437 7.6773 6.99853 8.246 6.41217 8.63636C7.47284 9.02729 8.37868 9.75069 8.99452 10.6986ZM13.8021 10.6904C13.1861 9.74648 12.2823 9.02619 11.2247 8.63636C11.9169 8.17007 12.4054 7.45752 12.5908 6.64374C12.7762 5.82996 12.6445 4.97612 12.2225 4.25602C11.8005 3.53591 11.12 3.00368 10.3195 2.76764C9.5189 2.53161 8.65849 2.60951 7.91335 2.9855C7.88485 3.00021 7.85994 3.02101 7.84038 3.04642C7.82082 3.07183 7.80708 3.10122 7.80014 3.13253C7.7932 3.16384 7.79323 3.19629 7.80022 3.22758C7.80721 3.25888 7.821 3.28825 7.84061 3.31363C8.39469 4.00477 8.71289 4.85518 8.74862 5.74028C8.78434 6.62539 8.5357 7.49867 8.03913 8.23222C8.00703 8.28016 7.99517 8.33884 8.00613 8.39548C8.01709 8.45212 8.04998 8.50214 8.09764 8.53464C8.74508 8.98651 9.29934 9.55896 9.73006 10.2207C9.90378 10.4867 9.97473 10.8068 9.92967 11.1214C9.9246 11.1526 9.92639 11.1847 9.93491 11.2152C9.94344 11.2457 9.95849 11.274 9.97904 11.2982C9.99958 11.3223 10.0251 11.3417 10.0539 11.355C10.0827 11.3682 10.114 11.3751 10.1457 11.3751H13.4433C13.5397 11.3751 13.6333 11.3434 13.7098 11.2847C13.7862 11.2261 13.8412 11.1439 13.8661 11.0508C13.8813 10.9896 13.8835 10.9259 13.8724 10.8638C13.8614 10.8017 13.8374 10.7426 13.8021 10.6904Z" fill="#1E429F"/>
</svg>
