<svg width="109" height="53" viewBox="0 0 109 53" fill="none" xmlns="http://www.w3.org/2000/svg">
<rect width="109" height="53" fill="#F78D40"/>
<path d="M17.463 15.272C17.5143 15.2767 17.582 15.2813 17.666 15.286C17.75 15.286 17.8643 15.286 18.009 15.286C18.6017 15.286 19.0427 15.1367 19.332 14.838C19.626 14.5347 19.773 14.1123 19.773 13.571C19.773 13.0203 19.6307 12.598 19.346 12.304C19.0613 12.01 18.6203 11.863 18.023 11.863C17.7617 11.863 17.575 11.87 17.463 11.884V15.272ZM20.697 13.571C20.697 13.991 20.6317 14.3573 20.501 14.67C20.3703 14.978 20.1837 15.237 19.941 15.447C19.703 15.6523 19.4137 15.8063 19.073 15.909C18.737 16.007 18.3637 16.056 17.953 16.056C17.757 16.056 17.5353 16.0467 17.288 16.028C17.0407 16.014 16.805 15.9813 16.581 15.93V11.219C16.805 11.1677 17.043 11.135 17.295 11.121C17.547 11.107 17.771 11.1 17.967 11.1C18.373 11.1 18.744 11.149 19.08 11.247C19.416 11.3403 19.703 11.4897 19.941 11.695C20.1837 11.8957 20.3703 12.1523 20.501 12.465C20.6317 12.773 20.697 13.1417 20.697 13.571ZM21.8001 16V11.149H24.9151V11.898H22.6821V13.095H24.6701V13.83H22.6821V15.251H25.0831V16H21.8001ZM27.4277 16C27.0777 15.244 26.7393 14.453 26.4127 13.627C26.0907 12.801 25.7897 11.975 25.5097 11.149H26.4827C26.5947 11.4757 26.709 11.8093 26.8257 12.15C26.9423 12.4907 27.059 12.8267 27.1757 13.158C27.2923 13.4847 27.409 13.802 27.5257 14.11C27.6423 14.418 27.7567 14.7003 27.8687 14.957C27.976 14.7003 28.088 14.4203 28.2047 14.117C28.3213 13.809 28.438 13.4893 28.5547 13.158C28.676 12.8267 28.795 12.4907 28.9117 12.15C29.0283 11.8093 29.1403 11.4757 29.2477 11.149H30.1927C29.908 11.975 29.6047 12.801 29.2827 13.627C28.9607 14.453 28.6247 15.244 28.2747 16H27.4277ZM30.96 16V11.149H34.075V11.898H31.842V13.095H33.83V13.83H31.842V15.251H34.243V16H30.96ZM38.2675 15.237V16H35.2015V11.149H36.0835V15.237H38.2675ZM39.5215 13.571C39.5215 13.837 39.5542 14.0797 39.6195 14.299C39.6849 14.5137 39.7782 14.698 39.8995 14.852C40.0255 15.0013 40.1772 15.118 40.3545 15.202C40.5319 15.286 40.7325 15.328 40.9565 15.328C41.1759 15.328 41.3742 15.286 41.5515 15.202C41.7289 15.118 41.8782 15.0013 41.9995 14.852C42.1255 14.698 42.2212 14.5137 42.2865 14.299C42.3519 14.0797 42.3845 13.837 42.3845 13.571C42.3845 13.305 42.3519 13.0647 42.2865 12.85C42.2212 12.6307 42.1255 12.4463 41.9995 12.297C41.8782 12.143 41.7289 12.024 41.5515 11.94C41.3742 11.856 41.1759 11.814 40.9565 11.814C40.7325 11.814 40.5319 11.856 40.3545 11.94C40.1772 12.024 40.0255 12.143 39.8995 12.297C39.7782 12.451 39.6849 12.6353 39.6195 12.85C39.5542 13.0647 39.5215 13.305 39.5215 13.571ZM43.3085 13.571C43.3085 13.9863 43.2455 14.3527 43.1195 14.67C42.9982 14.9873 42.8302 15.2533 42.6155 15.468C42.4055 15.678 42.1582 15.8367 41.8735 15.944C41.5889 16.0513 41.2855 16.105 40.9635 16.105C40.6415 16.105 40.3359 16.0513 40.0465 15.944C39.7619 15.8367 39.5122 15.678 39.2975 15.468C39.0875 15.2533 38.9195 14.9873 38.7935 14.67C38.6675 14.3527 38.6045 13.9863 38.6045 13.571C38.6045 13.1557 38.6675 12.7917 38.7935 12.479C38.9195 12.1617 39.0899 11.8957 39.3045 11.681C39.5239 11.4663 39.7759 11.3053 40.0605 11.198C40.3452 11.0907 40.6462 11.037 40.9635 11.037C41.2809 11.037 41.5819 11.0907 41.8665 11.198C42.1512 11.3053 42.3985 11.4663 42.6085 11.681C42.8232 11.8957 42.9935 12.1617 43.1195 12.479C43.2455 12.7917 43.3085 13.1557 43.3085 13.571ZM45.7881 11.1C46.4928 11.1 47.0318 11.2283 47.4051 11.485C47.7831 11.7417 47.9721 12.143 47.9721 12.689C47.9721 12.9737 47.9208 13.2187 47.8181 13.424C47.7201 13.6247 47.5755 13.7903 47.3841 13.921C47.1928 14.047 46.9595 14.1403 46.6841 14.201C46.4088 14.2617 46.0938 14.292 45.7391 14.292H45.2981V16H44.4161V11.219C44.6215 11.1723 44.8478 11.142 45.0951 11.128C45.3471 11.1093 45.5781 11.1 45.7881 11.1ZM45.8511 11.863C45.6271 11.863 45.4428 11.87 45.2981 11.884V13.536H45.7251C46.1498 13.536 46.4765 13.4777 46.7051 13.361C46.9338 13.2397 47.0481 13.0133 47.0481 12.682C47.0481 12.5233 47.0178 12.3903 46.9571 12.283C46.8965 12.1757 46.8125 12.0917 46.7051 12.031C46.5978 11.9703 46.4695 11.9283 46.3201 11.905C46.1755 11.877 46.0191 11.863 45.8511 11.863ZM48.9174 16V11.149H52.0324V11.898H49.7994V13.095H51.7874V13.83H49.7994V15.251H52.2004V16H48.9174ZM54.041 15.272C54.0923 15.2767 54.16 15.2813 54.244 15.286C54.328 15.286 54.4423 15.286 54.587 15.286C55.1797 15.286 55.6207 15.1367 55.91 14.838C56.204 14.5347 56.351 14.1123 56.351 13.571C56.351 13.0203 56.2087 12.598 55.924 12.304C55.6393 12.01 55.1983 11.863 54.601 11.863C54.3397 11.863 54.153 11.87 54.041 11.884V15.272ZM57.275 13.571C57.275 13.991 57.2097 14.3573 57.079 14.67C56.9483 14.978 56.7617 15.237 56.519 15.447C56.281 15.6523 55.9917 15.8063 55.651 15.909C55.315 16.007 54.9417 16.056 54.531 16.056C54.335 16.056 54.1133 16.0467 53.866 16.028C53.6187 16.014 53.383 15.9813 53.159 15.93V11.219C53.383 11.1677 53.621 11.135 53.873 11.121C54.125 11.107 54.349 11.1 54.545 11.1C54.951 11.1 55.322 11.149 55.658 11.247C55.994 11.3403 56.281 11.4897 56.519 11.695C56.7617 11.8957 56.9483 12.1523 57.079 12.465C57.2097 12.773 57.275 13.1417 57.275 13.571ZM61.6149 16.056C61.3582 16.056 61.0992 16.0467 60.8379 16.028C60.5766 16.014 60.3479 15.9813 60.1519 15.93V11.219C60.2546 11.2003 60.3642 11.184 60.4809 11.17C60.5976 11.1513 60.7166 11.1373 60.8379 11.128C60.9592 11.1187 61.0782 11.1117 61.1949 11.107C61.3162 11.1023 61.4306 11.1 61.5379 11.1C61.8319 11.1 62.1049 11.1233 62.3569 11.17C62.6089 11.212 62.8259 11.2843 63.0079 11.387C63.1946 11.4897 63.3392 11.625 63.4419 11.793C63.5446 11.961 63.5959 12.1687 63.5959 12.416C63.5959 12.6447 63.5399 12.8407 63.4279 13.004C63.3206 13.1673 63.1689 13.298 62.9729 13.396C63.2669 13.494 63.4839 13.6387 63.6239 13.83C63.7639 14.0213 63.8339 14.264 63.8339 14.558C63.8339 15.0573 63.6519 15.433 63.2879 15.685C62.9239 15.9323 62.3662 16.056 61.6149 16.056ZM61.0199 13.816V15.293C61.1179 15.3023 61.2229 15.3093 61.3349 15.314C61.4469 15.3187 61.5496 15.321 61.6429 15.321C61.8249 15.321 61.9929 15.3093 62.1469 15.286C62.3056 15.2627 62.4409 15.223 62.5529 15.167C62.6696 15.1063 62.7606 15.027 62.8259 14.929C62.8959 14.831 62.9309 14.705 62.9309 14.551C62.9309 14.2757 62.8306 14.0843 62.6299 13.977C62.4292 13.8697 62.1516 13.816 61.7969 13.816H61.0199ZM61.0199 13.123H61.6429C61.9789 13.123 62.2426 13.0763 62.4339 12.983C62.6252 12.885 62.7209 12.7123 62.7209 12.465C62.7209 12.2317 62.6206 12.066 62.4199 11.968C62.2239 11.87 61.9672 11.821 61.6499 11.821C61.5146 11.821 61.3932 11.8233 61.2859 11.828C61.1832 11.8327 61.0946 11.8397 61.0199 11.849V13.123ZM66.3663 13.298C66.5763 12.948 66.7816 12.5933 66.9823 12.234C67.1829 11.8747 67.3649 11.513 67.5283 11.149H68.5083C68.2469 11.6437 67.9739 12.136 67.6893 12.626C67.4093 13.1113 67.1083 13.6013 66.7863 14.096V16H65.9043V14.11C65.5823 13.6107 65.2789 13.116 64.9943 12.626C64.7096 12.136 64.4366 11.6437 64.1753 11.149H65.2113C65.3746 11.513 65.5543 11.8747 65.7503 12.234C65.9463 12.5933 66.1516 12.948 66.3663 13.298Z" fill="#F0F0F0" fill-opacity="0.5"/>
<path d="M18.2506 27.9698C18.3331 28.5754 19.049 28.9791 19.9257 28.9791C20.8478 28.9791 21.446 28.5871 21.446 28.056C21.446 27.5661 21.0541 27.327 20.002 27.1192L18.7849 26.8919C17.0706 26.5803 16.1877 25.6983 16.1877 24.3578C16.1877 22.6429 17.7349 21.5396 19.8865 21.5396C22.2134 21.5396 23.5873 22.6116 23.6121 24.2716H21.4275C21.3821 23.6287 20.757 23.2427 19.9071 23.2427C19.0572 23.2427 18.5332 23.5974 18.5332 24.1363C18.5332 24.6145 18.9458 24.8772 19.9195 25.0673L21.1242 25.2809C22.9623 25.618 23.7874 26.4078 23.7874 27.8052C23.7874 29.569 22.2588 30.6822 19.8679 30.6822C17.477 30.6822 16.0289 29.6886 16 27.9698H18.2506Z" fill="#F0F0F0"/>
<path d="M31.7585 30.5333V26.9762H28.0452V30.5333H25.6874V21.6983H28.0514V25.1633H31.7647V21.6983H34.1225V30.5333H31.7585Z" fill="#F0F0F0"/>
<path d="M35.8059 30.5333L38.927 21.6983H41.8151L44.9507 30.5333H42.434L41.846 28.593H38.8094L35.8059 30.5333ZM39.2653 26.9762H41.386L40.3546 23.5719H40.303L39.2653 26.9762Z" fill="#F0F0F0"/>
<path d="M46.6319 30.5333V21.6983H50.6608C52.6577 21.6983 54.0109 22.9291 54.0109 24.8341C54.0109 26.739 52.5875 27.9502 50.5184 27.9502H48.9981L46.6319 30.5333ZM48.9981 26.2608H50.0295C51.0342 26.2608 51.6262 25.765 51.6262 24.8399C51.6262 23.9149 51.0342 23.4249 50.0419 23.4249H49.0105L48.9981 26.2608Z" fill="#F0F0F0"/>
<path d="M64.7813 26.1178C64.7813 28.934 63.0093 30.6861 60.1914 30.6861C57.3734 30.6861 55.5973 28.934 55.5973 26.1178C55.5973 23.3015 57.3755 21.5435 60.1914 21.5435C63.0072 21.5435 64.7813 23.3015 64.7813 26.1178ZM58.0067 26.1178C58.0067 27.7954 58.8649 28.8615 60.1914 28.8615C61.5178 28.8615 62.378 27.7954 62.378 26.1178C62.378 24.4401 61.5137 23.374 60.1914 23.374C58.869 23.374 58.0067 24.4421 58.0067 26.1178Z" fill="#F0F0F0"/>
<path d="M69.1897 23.9698L70.3676 28.3343H70.4192L72.2057 21.6983H74.7967L71.8302 30.5333H68.8535L65.8891 21.6983" fill="#F0F0F0"/>
<path d="M74.8792 30.5333L78.0045 21.6983H80.8925L84.0178 30.5333H81.5114L80.9235 28.593H77.8828L74.8792 30.5333ZM78.3407 26.9762H80.4614L79.4299 23.5719H79.3784L78.3407 26.9762Z" fill="#F0F0F0"/>
<path d="M88.0714 28.7204H91.9187V30.5333H85.7053V21.6983" fill="#F0F0F0"/>
<path d="M16.0659 42.3751L19.251 33.3736H22.1989L25.384 42.3751H22.8219L22.2175 40.3977H19.1231L16.0659 42.3751ZM19.5893 38.7514H21.7513L20.6992 35.2825H20.6476L19.5893 38.7514Z" fill="#F0F0F0"/>
<path d="M38.8877 37.4657V38.5711C38.8877 41.0287 37.2849 42.5319 34.5866 42.5319C31.6635 42.5319 29.9038 40.8171 29.9038 37.8597C29.9038 34.9395 31.6635 33.2168 34.5268 33.2168C36.8249 33.2168 38.5453 34.5083 38.7887 36.3525H36.4061C36.1688 35.5549 35.4592 35.0688 34.533 35.0688C33.1673 35.0688 32.3607 36.084 32.3607 37.8381C32.3607 39.5922 33.254 40.7014 34.6299 40.7014C35.7212 40.7014 36.4865 40.0899 36.5484 39.1845V39.0473H34.8156" fill="#F0F0F0"/>
<path d="M51.0196 42.3751H44.5236V33.3736H51.0196V35.2217H46.9351V37.013H50.7762V38.6965H46.9351V40.5309H51.0196V42.3751Z" fill="#F0F0F0"/>
<path d="M56.8205 42.3751V33.3736H58.7431L62.7637 38.6083H62.8153V33.3736H65.101V42.3751H63.1969L59.1578 37.0836H59.1062V42.3751H56.8205Z" fill="#F0F0F0"/>
<path d="M70.4232 37.8851C70.4232 34.9454 72.1994 33.2442 75.0132 33.2442C77.4041 33.2442 79.2174 34.7063 79.2896 36.8268H76.9771C76.8595 35.7705 76.0673 35.063 75.0132 35.063C73.7032 35.063 72.8719 36.1272 72.8719 37.8695C72.8719 39.6118 73.697 40.7093 75.0276 40.7093C76.0818 40.7093 76.8492 40.0488 76.9997 38.9983H79.3102C79.1988 41.1326 77.4536 42.5378 75.0214 42.5378C72.1849 42.5319 70.4232 40.821 70.4232 37.8851Z" fill="#F0F0F0"/>
<path d="M86.5138 42.3751V39.2825L83.2503 33.3736H85.8372L87.7206 37.1169H87.7681L89.6453 33.3736H92.1868L88.9233 39.2825V42.3751H86.5138Z" fill="#F0F0F0"/>
</svg>
