<svg width="21" height="21" viewBox="0 0 21 21" fill="none" xmlns="http://www.w3.org/2000/svg">
<path d="M9.54897 3.42708C9.84897 2.50608 11.152 2.50608 11.451 3.42708L12.521 6.71908C12.5863 6.91957 12.7134 7.09426 12.884 7.21818C13.0547 7.34211 13.2601 7.40892 13.471 7.40908H16.933C17.902 7.40908 18.304 8.64908 17.521 9.21908L14.721 11.2531C14.55 11.3771 14.4227 11.5521 14.3573 11.7529C14.2919 11.9538 14.2918 12.1702 14.357 12.3711L15.427 15.6631C15.727 16.5841 14.672 17.3511 13.887 16.7811L11.087 14.7471C10.9162 14.6231 10.7105 14.5563 10.4995 14.5563C10.2884 14.5563 10.0828 14.6231 9.91197 14.7471L7.11197 16.7811C6.32797 17.3511 5.27397 16.5841 5.57297 15.6631L6.64297 12.3711C6.70815 12.1702 6.70803 11.9538 6.64264 11.7529C6.57725 11.5521 6.44994 11.3771 6.27897 11.2531L3.47997 9.22008C2.69697 8.65008 3.09997 7.41008 4.06797 7.41008H7.52897C7.74002 7.41013 7.94568 7.34342 8.1165 7.21948C8.28732 7.09554 8.41455 6.92073 8.47997 6.72008L9.54997 3.42808L9.54897 3.42708Z" fill="#FACA15"/>
</svg>
