<svg width="20" height="20" viewBox="0 0 20 20" fill="none" xmlns="http://www.w3.org/2000/svg">
<path d="M12.8313 15.9188C12.8774 15.9617 12.9143 16.0134 12.9399 16.0709C12.9656 16.1284 12.9793 16.1905 12.9804 16.2535C12.9816 16.3164 12.97 16.3789 12.9464 16.4373C12.9228 16.4956 12.8877 16.5487 12.8432 16.5932C12.7987 16.6377 12.7457 16.6728 12.6873 16.6964C12.629 16.7199 12.5664 16.7315 12.5035 16.7304C12.4406 16.7293 12.3785 16.7155 12.321 16.6899C12.2635 16.6643 12.2117 16.6273 12.1688 16.5813L5.91883 10.3313C5.83104 10.2434 5.78174 10.1242 5.78174 10C5.78174 9.87581 5.83104 9.75667 5.91883 9.66878L12.1688 3.41878C12.2577 3.33598 12.3752 3.2909 12.4967 3.29304C12.6181 3.29518 12.734 3.34438 12.8198 3.43026C12.9057 3.51615 12.9549 3.63201 12.9571 3.75345C12.9592 3.87489 12.9141 3.99242 12.8313 4.08128L6.91336 10L12.8313 15.9188Z" fill="#39393A"/>
</svg>
