<svg width="20" height="20" viewBox="0 0 20 20" fill="none" xmlns="http://www.w3.org/2000/svg">
<path d="M14.0813 10.3314L7.83128 16.5814C7.74242 16.6642 7.62489 16.7093 7.50345 16.7071C7.38201 16.705 7.26615 16.6558 7.18026 16.5699C7.09438 16.484 7.04518 16.3682 7.04304 16.2467C7.0409 16.1253 7.08598 16.0078 7.16878 15.9189L13.0867 10.0001L7.16878 4.0814C7.08598 3.99254 7.0409 3.87501 7.04304 3.75357C7.04518 3.63213 7.09438 3.51627 7.18026 3.43038C7.26615 3.3445 7.38201 3.29531 7.50345 3.29316C7.62489 3.29102 7.74242 3.3361 7.83128 3.4189L14.0813 9.6689C14.1691 9.75679 14.2184 9.87593 14.2184 10.0001C14.2184 10.1244 14.1691 10.2435 14.0813 10.3314Z" fill="#39393A"/>
</svg>
