<svg width="21" height="15" viewBox="0 0 21 15" fill="none" xmlns="http://www.w3.org/2000/svg">
<rect x="0.0664062" y="0.5" width="20" height="14" rx="1.4" fill="white"/>
<mask id="mask0_759_21404" style="mask-type:luminance" maskUnits="userSpaceOnUse" x="0" y="0" width="21" height="15">
<rect x="0.0664062" y="0.5" width="20" height="14" fill="white"/>
</mask>
<g mask="url(#mask0_759_21404)">
<path fill-rule="evenodd" clip-rule="evenodd" d="M20.0664 0.5H0.0664062V1.43333H20.0664V0.5ZM20.0664 2.3665H0.0664062V3.29983H20.0664V2.3665ZM0.0664062 4.23356H20.0664V5.16689H0.0664062V4.23356ZM20.0664 6.10006H0.0664062V7.03339H20.0664V6.10006ZM0.0664062 7.96655H20.0664V8.89988H0.0664062V7.96655ZM20.0664 9.83333H0.0664062V10.7667H20.0664V9.83333ZM0.0664062 11.7001H20.0664V12.6334H0.0664062V11.7001ZM20.0664 13.5666H0.0664062V14.4999H20.0664V13.5666Z" fill="#D02F44"/>
<rect x="0.0664062" y="0.5" width="8.57143" height="6.53332" fill="#46467F"/>
<g filter="url(#filter0_d_759_21404)">
<path fill-rule="evenodd" clip-rule="evenodd" d="M3.87624 1.90002C3.87624 2.15775 3.66304 2.36668 3.40005 2.36668C3.13706 2.36668 2.92386 2.15775 2.92386 1.90002C2.92386 1.64228 3.13706 1.43335 3.40005 1.43335C3.66304 1.43335 3.87624 1.64228 3.87624 1.90002ZM1.97142 1.90022C1.97142 2.15795 1.75823 2.36688 1.49523 2.36688C1.23224 2.36688 1.01904 2.15795 1.01904 1.90022C1.01904 1.64249 1.23224 1.43355 1.49523 1.43355C1.75823 1.43355 1.97142 1.64249 1.97142 1.90022ZM5.305 2.36668C5.56799 2.36668 5.78119 2.15775 5.78119 1.90002C5.78119 1.64228 5.56799 1.43335 5.305 1.43335C5.042 1.43335 4.82881 1.64228 4.82881 1.90002C4.82881 2.15775 5.042 2.36668 5.305 2.36668ZM7.68585 1.90002C7.68585 2.15775 7.47265 2.36668 7.20966 2.36668C6.94667 2.36668 6.73347 2.15775 6.73347 1.90002C6.73347 1.64228 6.94667 1.43335 7.20966 1.43335C7.47265 1.43335 7.68585 1.64228 7.68585 1.90002ZM2.44786 3.30007C2.71085 3.30007 2.92405 3.09114 2.92405 2.83341C2.92405 2.57567 2.71085 2.36674 2.44786 2.36674C2.18487 2.36674 1.97167 2.57567 1.97167 2.83341C1.97167 3.09114 2.18487 3.30007 2.44786 3.30007ZM4.82871 2.83341C4.82871 3.09114 4.61552 3.30007 4.35252 3.30007C4.08953 3.30007 3.87633 3.09114 3.87633 2.83341C3.87633 2.57567 4.08953 2.36674 4.35252 2.36674C4.61552 2.36674 4.82871 2.57567 4.82871 2.83341ZM6.25719 3.30007C6.52018 3.30007 6.73338 3.09114 6.73338 2.83341C6.73338 2.57567 6.52018 2.36674 6.25719 2.36674C5.99419 2.36674 5.781 2.57567 5.781 2.83341C5.781 3.09114 5.99419 3.30007 6.25719 3.30007ZM7.68585 3.76651C7.68585 4.02424 7.47265 4.23318 7.20966 4.23318C6.94667 4.23318 6.73347 4.02424 6.73347 3.76651C6.73347 3.50878 6.94667 3.29985 7.20966 3.29985C7.47265 3.29985 7.68585 3.50878 7.68585 3.76651ZM5.305 4.23318C5.56799 4.23318 5.78119 4.02424 5.78119 3.76651C5.78119 3.50878 5.56799 3.29985 5.305 3.29985C5.042 3.29985 4.82881 3.50878 4.82881 3.76651C4.82881 4.02424 5.042 4.23318 5.305 4.23318ZM3.87624 3.76651C3.87624 4.02424 3.66304 4.23318 3.40005 4.23318C3.13706 4.23318 2.92386 4.02424 2.92386 3.76651C2.92386 3.50878 3.13706 3.29985 3.40005 3.29985C3.66304 3.29985 3.87624 3.50878 3.87624 3.76651ZM1.49539 4.23318C1.75838 4.23318 1.97158 4.02424 1.97158 3.76651C1.97158 3.50878 1.75838 3.29985 1.49539 3.29985C1.23239 3.29985 1.0192 3.50878 1.0192 3.76651C1.0192 4.02424 1.23239 4.23318 1.49539 4.23318ZM2.92405 4.70019C2.92405 4.95792 2.71085 5.16685 2.44786 5.16685C2.18487 5.16685 1.97167 4.95792 1.97167 4.70019C1.97167 4.44245 2.18487 4.23352 2.44786 4.23352C2.71085 4.23352 2.92405 4.44245 2.92405 4.70019ZM4.35252 5.16685C4.61552 5.16685 4.82871 4.95792 4.82871 4.70019C4.82871 4.44245 4.61552 4.23352 4.35252 4.23352C4.08953 4.23352 3.87633 4.44245 3.87633 4.70019C3.87633 4.95792 4.08953 5.16685 4.35252 5.16685ZM6.73338 4.70019C6.73338 4.95792 6.52018 5.16685 6.25719 5.16685C5.99419 5.16685 5.781 4.95792 5.781 4.70019C5.781 4.44245 5.99419 4.23352 6.25719 4.23352C6.52018 4.23352 6.73338 4.44245 6.73338 4.70019ZM7.20966 6.10024C7.47265 6.10024 7.68585 5.89131 7.68585 5.63358C7.68585 5.37584 7.47265 5.16691 7.20966 5.16691C6.94667 5.16691 6.73347 5.37584 6.73347 5.63358C6.73347 5.89131 6.94667 6.10024 7.20966 6.10024ZM5.78119 5.63358C5.78119 5.89131 5.56799 6.10024 5.305 6.10024C5.042 6.10024 4.82881 5.89131 4.82881 5.63358C4.82881 5.37584 5.042 5.16691 5.305 5.16691C5.56799 5.16691 5.78119 5.37584 5.78119 5.63358ZM3.40005 6.10024C3.66304 6.10024 3.87624 5.89131 3.87624 5.63358C3.87624 5.37584 3.66304 5.16691 3.40005 5.16691C3.13706 5.16691 2.92386 5.37584 2.92386 5.63358C2.92386 5.89131 3.13706 6.10024 3.40005 6.10024ZM1.97158 5.63358C1.97158 5.89131 1.75838 6.10024 1.49539 6.10024C1.23239 6.10024 1.0192 5.89131 1.0192 5.63358C1.0192 5.37584 1.23239 5.16691 1.49539 5.16691C1.75838 5.16691 1.97158 5.37584 1.97158 5.63358Z" fill="url(#paint0_linear_759_21404)"/>
</g>
</g>
<defs>
<filter id="filter0_d_759_21404" x="1.01904" y="1.43335" width="6.66699" height="5.36699" filterUnits="userSpaceOnUse" color-interpolation-filters="sRGB">
<feFlood flood-opacity="0" result="BackgroundImageFix"/>
<feColorMatrix in="SourceAlpha" type="matrix" values="0 0 0 0 0 0 0 0 0 0 0 0 0 0 0 0 0 0 127 0" result="hardAlpha"/>
<feOffset dy="0.699999"/>
<feColorMatrix type="matrix" values="0 0 0 0 0 0 0 0 0 0 0 0 0 0 0 0 0 0 0.06 0"/>
<feBlend mode="normal" in2="BackgroundImageFix" result="effect1_dropShadow_759_21404"/>
<feBlend mode="normal" in="SourceGraphic" in2="effect1_dropShadow_759_21404" result="shape"/>
</filter>
<linearGradient id="paint0_linear_759_21404" x1="1.01904" y1="1.43335" x2="1.01904" y2="6.10018" gradientUnits="userSpaceOnUse">
<stop stop-color="white"/>
<stop offset="1" stop-color="#F0F0F0"/>
</linearGradient>
</defs>
</svg>
